<?xml version="1.0" encoding="utf-8"?>
<!-- Generator: Adobe Illustrator 18.1.1, SVG Export Plug-In . SVG Version: 6.00 Build 0)  -->
<svg version="1.1" id="Layer_1" xmlns="http://www.w3.org/2000/svg" xmlns:xlink="http://www.w3.org/1999/xlink" x="0px" y="0px"
	 viewBox="0 0 800 600" enable-background="new 0 0 800 600" xml:space="preserve">
<g>
	<g>
		<g>
			<g>
				<path fill="#FFFFFF" d="M70.5,225.1c1.8-3.6,2.6-8.7,2.6-12.6c0-4.6-8.1-7.7-19.3-7.7c-4,0-7.3,0-9.9,0.6
					c-1.9,5.5-1.9,9.8-1.8,11.9c0,0,0.8-1.7,1.8-3c0.3,12,8.3,16.3,11.9,17.7C65.9,231.6,68.6,228.8,70.5,225.1z M64.4,211.6
					c0.4,0,0.8,0.1,1.1,0.3c-0.3,0.4-0.4,1-0.4,1.5c0,1.1,0.6,2.1,1.2,2.1c0.4,0,0.8-0.4,1.1-1.1c0.4,1,0.6,2.1,0.6,3.3
					c0,3.3-1.7,6.1-3.6,6.1c-2.1,0-3.6-2.8-3.6-6.1C60.7,214.2,62.3,211.6,64.4,211.6z"/>
			</g>
		</g>
		<g>
			<g>
				<path fill="#FFFFFF" d="M40.1,245.1c-1.4,3.4,0.1,4.6-0.8,4.6c-0.8,0-2.3-3.3-2.3-4.8c0-1.5,0.6-3.2,0.6-3.2s-2.9,1.4-2.9,0.4
					c0-3,4.3-5.7,4.3-5.7c-1.5,0-2.2-0.6-2.2-0.8c0-0.3,0.8-0.8,3.6-1.5v-0.1c0,0-11.2-8.1-15.6-8.1s-7.9,5.9-7.9,14.1
					c0,8.1,4.6,15.3,11.7,15.3s14.9-5,14.9-5v-0.1C40.6,249,40.1,245.1,40.1,245.1z"/>
			</g>
		</g>
		<g>
			<g>
				<polygon fill="#FFFFFF" points="32,208.1 35.7,208.1 35.7,208.1 				"/>
			</g>
		</g>
		<g>
			<g>
				<path fill="#FFFFFF" d="M80.3,204.8c7.4-0.1,12.8-3.4,29.5-3.4c1.9,0,4.1,0.1,5.9,0.1c-0.4-0.8-0.7-1.7-0.7-2.3l0,0
					c-4.1-6.8-9-10.1-15.9-10.1c-10.3,0-18.3,5.8-18.6,6.1c0,0-0.1,0-0.3-0.1c-1.1-1.7-3-3.2-4.8-4.7c-1.8-1.4-1.8-0.4-0.8,1.5
					c-3.2-1.4-7.7-2.8-12.8-2.8c-7.3,0-13,3.9-15.9,11.4c-0.1,0.3-0.3,0.7-0.6,1c1.7-0.1,3.4-0.1,5.4-0.1
					C67.6,201.4,73,204.7,80.3,204.8z M86.1,198.6c8.3-3.2,17.4-0.7,17.4-0.7c-10.9-0.6-17.4,2.6-17.4,2.6V198.6z M75,198.6v1.9
					c0,0-6.5-3.2-17.4-2.6C57.7,197.9,64,195.4,75,198.6z"/>
			</g>
		</g>
		<g>
			<g>
				<path fill="#FFFFFF" d="M80.3,214.9c-10.6,0.4,1.9,20.8-25.1,20.8c0,0,0,0-0.1,0c-3.6,4.1-3.7,29.2-3.7,37.8
					c0,10.1,16,24.7,16,24.7s3.7,1,12.7,1l0,0l0,0c9.1,0,12.7-1.4,12.7-1.4s16-15,16-25.2c0-8.6,0-31.2-3.7-38.1
					C78.5,234.5,91,215.3,80.3,214.9z M83.2,237.2c0.6,0,1.5-0.1,5.2-0.1c3.9,0,6.6,1.4,6.6,1.4h-7.7c0,0-1.7,3-2.8,3
					s-0.8-0.6-0.8-0.6l-1.4,2.9C82.2,244,82.6,237.2,83.2,237.2z M72.4,237.1c3.9,0,4.8,0.3,5.2,0.3c0.4,0,1,6.6,1,6.6l-1.4-3
					c0,0,0.1,0.6-0.8,0.6c-1.1,0-2.8-3-2.8-3h-7.7C65.8,238.5,68.7,237.1,72.4,237.1z M80.3,283c-2.6,0-4-1.8-4-1.8h7.9
					C84.3,281.2,82.9,283,80.3,283z M97.5,271.6c0,0-11.4,2.3-17.1,2.3c-7.9,0-13.4-1.2-13.4-1.2l-9.4-11.3l9.4,7.9c0,0,7,1,15.3,1
					c8.4,0,13.8-0.6,13.8-0.6l6.1-3.6L97.5,271.6z"/>
			</g>
		</g>
		<g>
			<g>
				<polygon fill="#FFFFFF" points="125.1,208.1 128.8,208.1 128.8,208.1 				"/>
			</g>
		</g>
		<g>
			<g>
				<path fill="#FFFFFF" d="M116.7,205.2c-2.6-0.4-5.9-0.6-9.8-0.6c-11.2,0-19.3,3.2-19.3,7.7c0,3.9,0.8,9,2.6,12.6
					c1.9,3.7,4.4,6.5,14.5,6.6c3.7-1.4,11.7-5.8,11.9-18.1c1.1,1.7,2.1,3.6,2.1,3.6C118.9,215,118.8,210.8,116.7,205.2z M95.9,223.7
					c-2.1,0-3.6-2.8-3.6-6.1s1.7-6.1,3.6-6.1c0.4,0,0.8,0.1,1.1,0.3c-0.3,0.4-0.4,1-0.4,1.5c0,1.1,0.6,2.1,1.2,2.1
					c0.4,0,0.8-0.4,1.1-1.1c0.4,1,0.6,2.1,0.6,3.3C99.4,221,97.9,223.7,95.9,223.7z"/>
			</g>
		</g>
		<g>
			<g>
				<path fill="#FFFFFF" d="M153.7,235c-4.3-17.4-13.8-20.1-17.9-20.4c-0.4,0-0.7-0.1-1-0.1c-1.8,0-4.4,1.1-6.6,2.3
					c0.6-2.9,1.1-3.3,2.6-3.3c1.2,0,2.3-1,2.5-2.3l0.4-7.6c0-0.7-0.1-1.4-0.7-1.8c-0.4-0.4-1.1-0.7-1.8-0.7c-1.1,0-2.9-0.3-5.1-0.7
					c-0.8-0.1-1.8-0.3-2.8-0.4c-4.6-10.5-12.6-18.8-22.6-23.4c0.1-0.1,0.1-0.3,0.3-0.6c0.3-0.8,0-1.8-0.7-2.5
					c-1.2-1.2-3-2.1-5.4-2.6c0.3,0,0.6-0.1,0.7-0.1c1.2-0.3,2.1-1.4,1.9-2.6c-0.1-1.2-1.1-2.2-2.3-2.2c-2.2,0-4.3,0.1-6.1,0.3
					c0.8-0.7,1.2-1.8,0.8-2.8c-0.4-1.1-1.4-1.7-2.6-1.5c-1.4,0.1-33.2,4.4-46.9,31.4c-0.1,0.1-0.1,0.3-0.1,0.4
					c-1.2,1.9-2.2,4-3.2,6.2c-0.8,0.1-1.7,0.3-2.3,0.4c-2.1,0.4-4,0.7-5.1,0.7c-0.7,0-1.2,0.3-1.8,0.7c-0.4,0.6-0.7,1.1-0.7,1.8
					l0.4,7.6c0.1,1.2,1.1,2.3,2.5,2.3c1.4,0,2.1,0.4,2.6,3.6c-2.3-1.2-5.1-2.6-7-2.6c-4.6,0-13,3.9-16.1,17.5c-0.1,0-0.1,0-0.3,0
					c-1.1,0-2.1,1-2.3,2.1c-2.2,15.7,3.2,23,6.6,25.9c5.7,6.3,13.8,6.6,15.4,6.6c5.4,0,11.6-3.4,15.6-6.2c0,7.7,0,22.3,0.6,28.7
					c0,0.7,0.4,1.2,0.8,1.7c0,0,5.4,4.6,10.3,9.8c0.8,0.8,1.5,1.7,2.2,2.6c2.9,3.6,5.9,7.2,13.8,8.6c-0.1,0.4-0.3,1-0.1,1.4
					c0.3,1.1,1.2,1.9,2.3,1.9c0.6,0,1.1,0,1.5,0c0.4,0.8,1.2,1.4,2.2,1.4c7.2,0,13.5-3,19.7-9.4c1.7-1.4,2.9-2.9,4.3-4.4
					c0.6-0.7,1.1-1.2,1.8-1.9c5-5.2,10.3-9.7,10.3-9.8c0.6-0.4,0.8-1,0.8-1.7c0.6-6.3,0.7-21.1,0.6-28.8c4,2.6,10.1,6.1,15.6,6.1
					c7.7,0,20.8-4.8,20.8-22.6c0-2.2-0.1-4.3-0.3-6.2c0.1,0,0.3-0.1,0.4-0.1C153.4,237.4,153.9,236.3,153.7,235z M148.7,233.1
					c0.7,3.2,1.1,6.8,1.1,11.2c0,18.5-14.9,20.3-18.3,20.3c-7.9,0-18.1-8.6-18.1-8.6s0.3,24.8-0.6,33.4c0,0-5.4,4.6-10.6,9.9
					c-2.1,2.2-3.7,4.4-5.9,6.2c-5.9,6.2-11.9,8.8-18.1,8.8c0,0,2.9-0.6,4.1-3.9c-0.3,0.7-1.8,2.5-7.9,2.5c0,0,2.2-1,2.2-2.8l0,0
					c-12.3-0.8-13.9-5.9-18.8-10.9c-5.1-5.4-10.6-10.1-10.6-10.1c-0.8-8.6-0.6-33.4-0.6-33.4s-10.2,8.6-18.1,8.6
					c-2.2,0-9.1-0.7-13.7-5.9c-2.8-2.3-8-8.8-5.9-23.9c0,0,0.6,2.2,1.7,3.6c1.9-18.5,12.1-21,14.6-21c2.9,0,9.7,4.6,9.7,4.6
					c0-1.1,0-2.1,0.1-3.2c-0.6-4-1.2-7.2-5.2-7.2l-0.3-7.7c1.9,0,5.1-0.7,9.1-1.4c1.1-2.8,2.5-5.4,4-7.7c-0.1,0-0.1,0.1-0.1,0.1
					c13.2-26.2,45.1-30.1,45.1-30.1s-5.9,4-8.8,6.9c0,0,6.1-2.8,16.3-2.8c0,0-7.4,1.5-10.3,4.4c0,0,10.1-1,13.8,2.5
					c0,0-3.4,0.6-5.7,1c13,3.6,23.4,13,28.7,25.9c4.3,0.7,7.6,1.4,9.5,1.4l-0.4,7.6c-4.7,0-4.7,4.1-5.5,9c0,0.4,0,1,0,1.4
					c0,0,6.8-4.7,9.7-4.7c0.3,0,0.4,0,0.8,0c3,0.3,11.9,2.3,15.7,18.6C151.3,235.6,150.2,233.9,148.7,233.1z"/>
			</g>
		</g>
		<g>
			<g>
				<path fill="#FFFFFF" d="M135.7,225.7c-4.3,0-15.3,8-15.4,8.1c3,0.6,4,1.2,4,1.5c0,0.4-0.8,0.8-2.2,0.8c0,0,4.3,2.8,4.3,5.7
					c0,1-2.9-0.4-2.9-0.4s0.6,1.7,0.6,3.2c0,1.5-1.7,5.1-2.5,5.1s0.6-1.1-0.8-4.6c0,0-0.6,4.4-3.7,5c0.1,0.1,7.9,5,14.9,5
					s11.7-7.2,11.7-15.3C143.6,231.6,140.1,225.7,135.7,225.7z"/>
			</g>
		</g>
	</g>
	<g>
		<path fill="#FFFFFF" d="M284.1,191.3H311c4.4,0,8.1,0.6,11.3,1.5c3,1.1,5.5,2.5,7.4,4.1c1.9,1.7,3.3,3.7,4.1,5.9s1.2,4.6,1.2,7
			c0,2.3-0.4,4.3-1.2,6.1c-0.8,1.8-1.8,3.3-2.9,4.6c-1.1,1.2-2.3,2.2-3.6,2.9c-1.2,0.7-2.2,1.2-3,1.4c1.2,0.4,2.6,1,4.3,1.7
			c1.7,0.7,3.3,1.8,4.8,3.2c1.5,1.4,2.8,3.2,3.9,5.2c1.1,2.1,1.5,4.6,1.5,7.4c0,3.7-0.7,6.9-1.9,9.4c-1.4,2.6-3.2,4.7-5.5,6.3
			c-2.3,1.7-5.4,2.9-8.8,3.6c-3.4,0.7-7.3,1.1-11.6,1.1h-26.9L284.1,191.3L284.1,191.3z M309.4,220c1.2,0,2.5-0.1,3.6-0.4
			c1.2-0.3,2.2-0.7,3.2-1.4c1-0.7,1.7-1.4,2.2-2.5c0.6-1.1,0.8-2.3,0.8-3.9s-0.3-2.9-0.8-3.9c-0.6-1.1-1.4-1.8-2.2-2.5
			c-1-0.6-1.9-1.1-3.2-1.2c-1.2-0.3-2.3-0.4-3.4-0.4H300V220L309.4,220L309.4,220z M310.3,250.5c1.1,0,2.5-0.1,3.9-0.3
			s2.8-0.6,4-1.2c1.2-0.7,2.2-1.5,3-2.8s1.2-2.9,1.2-5.1c0-1.9-0.4-3.4-1.2-4.7c-0.8-1.2-1.8-2.2-3-2.9c-1.2-0.7-2.5-1.1-4-1.4
			c-1.4-0.3-2.8-0.4-4-0.4h-10.5v18.6h10.6V250.5z"/>
	</g>
	<g>
		<path fill="#FFFFFF" d="M345.5,237.7c0-3.7,0.7-7.2,1.9-10.5c1.4-3.3,3.2-6.1,5.5-8.6s5.2-4.4,8.6-5.8c3.3-1.4,7-2.1,11-2.1
			c4,0,7.7,0.7,10.9,2.1c3.3,1.4,6.1,3.3,8.6,5.8c2.3,2.5,4.1,5.2,5.5,8.6c1.4,3.3,1.9,6.8,1.9,10.5c0,3.7-0.7,7.2-1.9,10.5
			c-1.4,3.3-3.2,6.1-5.5,8.6s-5.2,4.4-8.6,5.8c-3.3,1.4-6.9,2.2-10.9,2.2c-4,0-7.7-0.7-11-2.2c-3.3-1.4-6.2-3.3-8.6-5.8
			c-2.3-2.5-4.1-5.2-5.5-8.6C346.2,245,345.5,241.4,345.5,237.7z M372.6,251.3c1.9,0,3.6-0.4,5.1-1.1c1.5-0.7,2.8-1.8,3.9-3
			c1.1-1.2,1.8-2.8,2.3-4.4c0.6-1.7,0.7-3.3,0.7-5s-0.3-3.4-0.7-5c-0.6-1.7-1.2-3-2.3-4.3s-2.3-2.2-3.9-3c-1.5-0.7-3.2-1.1-5.1-1.1
			c-1.9,0-3.7,0.4-5.2,1.1c-1.5,0.7-2.8,1.8-3.9,3c-1,1.2-1.8,2.6-2.3,4.3c-0.6,1.7-0.8,3.3-0.8,5s0.3,3.4,0.8,5
			c0.6,1.7,1.2,3,2.3,4.4c1,1.2,2.2,2.3,3.9,3C368.8,250.9,370.6,251.3,372.6,251.3z"/>
	</g>
	<g>
		<path fill="#FFFFFF" d="M407.6,270.9c0.8,0.7,1.8,1.2,2.9,1.7c1.1,0.6,2.2,0.7,3.4,0.7c1.7,0,3-0.6,4.1-1.5
			c1.1-1.1,2.2-2.8,3.2-5.4l1.5-4.1l-23-49.8h17.5l12.6,31.7l11.4-31.7h16.4l-20.6,50.1c-1.1,2.8-2.2,5.5-3.4,8.3
			c-1.1,2.8-2.5,5.2-4.1,7.4c-1.7,2.2-3.6,4-5.9,5.4c-2.3,1.4-5.2,2.1-8.7,2.1c-2.8,0-5.2-0.4-7.4-1.1c-2.2-0.7-4.3-1.8-6.1-3.2
			L407.6,270.9z"/>
	</g>
	<g>
		<path fill="#FFFFFF" d="M484.6,191.3h16.3v71.6h-16.3V191.3z"/>
	</g>
	<g>
		<path fill="#FFFFFF" d="M517.2,247.4c1.7,1.5,3.9,2.8,6.5,3.7s5.2,1.5,7.7,1.5c2.3,0,4.1-0.3,5.7-0.8c1.5-0.6,2.2-1.7,2.2-3.3
			c0-0.7-0.1-1.2-0.6-1.8c-0.3-0.6-1-1.1-1.8-1.5c-0.8-0.4-2.1-1-3.6-1.5c-1.5-0.6-3.4-1.1-5.8-1.7c-1.9-0.6-3.9-1.1-5.8-1.9
			c-1.9-0.8-3.6-1.8-5.1-3c-1.5-1.2-2.6-2.6-3.6-4.4c-1-1.8-1.4-3.7-1.4-6.1c0-2.3,0.6-4.6,1.7-6.3c1.1-1.9,2.6-3.6,4.4-5
			c1.9-1.4,4.1-2.5,6.8-3.2c2.6-0.7,5.4-1.1,8.4-1.1c4.3,0,8,0.6,11.3,1.5c3.2,1,6.2,2.3,9,4.3l-6.5,10.2c-1.7-1.1-3.6-2.1-5.7-2.9
			c-2.1-0.8-4.6-1.2-7.2-1.2c-2.3,0-4.1,0.3-5.1,1c-1.1,0.7-1.7,1.7-1.7,2.8c0,1.7,1.1,2.9,3.3,3.6c2.2,0.8,5.2,1.7,9,2.6
			c5.1,1.4,8.8,3.4,11.2,5.9c2.3,2.5,3.4,5.8,3.4,9.9c0,2.8-0.7,5.2-1.9,7.2c-1.2,2.1-2.9,3.7-5.1,5c-2.1,1.4-4.6,2.3-7.2,2.9
			c-2.6,0.7-5.4,1-8.3,1c-4.6,0-8.8-0.6-12.8-1.8c-4-1.2-7.3-3-9.8-5.5L517.2,247.4z"/>
	</g>
	<g>
		<path fill="#FFFFFF" d="M562.1,212.6h15.4v29c0,2.9,0.7,5.1,2.1,6.8c1.4,1.7,3.4,2.5,6.2,2.5c1.5,0,3-0.3,4.1-1
			c1.2-0.6,2.2-1.4,3.2-2.5c0.8-1,1.5-2.2,1.9-3.6c0.4-1.4,0.7-2.8,0.7-4.1v-27H611v50.3h-14.8l-0.4-5.4c-1.7,1.9-3.9,3.6-6.5,4.8
			c-2.6,1.2-5.5,1.9-8.4,1.9c-5.8,0-10.3-1.7-13.8-5.1c-3.3-3.4-5.1-8.6-5.1-15.3L562.1,212.6L562.1,212.6z"/>
	</g>
	<g>
		<path fill="#FFFFFF" d="M669.1,257.5c-0.6,0.4-1.4,1-2.6,1.8c-1.1,0.8-2.6,1.7-4.4,2.5c-1.8,0.8-4,1.5-6.5,2.1
			c-2.5,0.6-5.4,1-8.6,1c-4.3,0-8.1-0.7-11.6-1.9c-3.4-1.4-6.3-3.2-8.7-5.5c-2.3-2.3-4.3-5.2-5.5-8.6c-1.2-3.3-1.9-7-1.9-11
			c0-3.4,0.6-6.9,1.8-10.2c1.2-3.3,2.9-6.1,5.1-8.6c2.2-2.5,5-4.4,8.1-5.8c3.2-1.5,6.9-2.2,10.9-2.2c4.1,0,7.7,0.7,10.8,2.2
			c3,1.4,5.7,3.4,7.7,5.9s3.7,5.5,4.8,9.1c1.1,3.6,1.7,7.4,1.7,11.6v2.6h-35.9c0.1,2.8,1.2,5.1,3.6,7.2s5.5,3,9.7,3
			c4,0,7.3-0.6,9.8-1.8c2.5-1.2,4.3-2.2,5.5-3L669.1,257.5z M655.6,232.4c0-1.1-0.3-2.2-0.7-3.3c-0.4-1.1-1.1-2.1-1.9-3
			c-0.8-1-1.9-1.7-3.2-2.3c-1.2-0.6-2.9-1-4.6-1c-1.8,0-3.3,0.3-4.7,1c-1.4,0.6-2.5,1.4-3.4,2.3c-0.8,1-1.5,1.9-2.1,3
			c-0.4,1.1-0.7,2.2-0.7,3.3H655.6z"/>
	</g>
	<g>
		<path fill="#FFFFFF" d="M682.5,247.4c1.7,1.5,3.9,2.8,6.5,3.7c2.6,1,5.2,1.5,7.7,1.5c2.3,0,4.1-0.3,5.7-0.8
			c1.5-0.6,2.2-1.7,2.2-3.3c0-0.7-0.1-1.2-0.6-1.8c-0.3-0.6-1-1.1-1.8-1.5s-2.1-1-3.6-1.5c-1.5-0.6-3.4-1.1-5.8-1.7
			c-1.9-0.6-3.9-1.1-5.8-1.9c-1.9-0.8-3.6-1.8-5.1-3c-1.5-1.2-2.6-2.6-3.6-4.4c-1-1.8-1.4-3.7-1.4-6.1c0-2.3,0.6-4.6,1.7-6.3
			c1.1-1.9,2.6-3.6,4.4-5c1.9-1.4,4.1-2.5,6.8-3.2c2.6-0.7,5.4-1.1,8.4-1.1c4.3,0,8,0.6,11.3,1.5c3.2,1,6.2,2.3,9,4.3L712,227
			c-1.7-1.1-3.6-2.1-5.7-2.9c-2.1-0.8-4.6-1.2-7.2-1.2c-2.3,0-4.1,0.3-5.1,1c-1.1,0.7-1.7,1.7-1.7,2.8c0,1.7,1.1,2.9,3.3,3.6
			c2.2,0.8,5.2,1.7,9,2.6c5.1,1.4,8.8,3.4,11.2,5.9c2.3,2.5,3.4,5.8,3.4,9.9c0,2.8-0.7,5.2-1.9,7.2c-1.2,2.1-2.9,3.7-5.1,5
			c-2.1,1.4-4.6,2.3-7.2,2.9c-2.6,0.7-5.4,1-8.3,1c-4.6,0-8.8-0.6-12.8-1.8c-4-1.2-7.3-3-9.8-5.5L682.5,247.4z"/>
	</g>
	<g>
		<g>
			<path fill="#C1E5E1" d="M600.8,200.3c-0.4-0.3-0.8-0.7-1.1-1.1s-0.6-1-0.7-1.5s-0.3-1.1-0.4-1.7c-0.1-0.6-0.3-1.1-0.4-1.7
				c0-0.4,0.1-0.8,0.3-1c0.1-0.3,0.4-0.4,0.7-0.6c0.8,0,1.5-0.1,2.1-0.1c0.6-0.1,1.2-0.1,1.8-0.3c0.6-0.1,1.2-0.1,1.8-0.3
				c0.6-0.1,1.2-0.1,1.9-0.1c0.6-1,1-1.9,1.4-2.9s0.8-1.8,1.2-2.6c0.1-0.8,0.4-1.5,0.7-2.2s0.6-1.4,1-2.1c0.3-0.7,0.6-1.2,0.8-1.9
				c0.3-0.7,0.4-1.4,0.4-2.1c0.4-1.1,0.7-2.2,1.1-3.2c0.3-1,0.6-2.1,0.7-3.4c-1.2,0.1-2.2,0.4-3,0.6c-0.7,0.1-1.2,0.4-1.7,0.6
				c-0.7,0-1.1-0.1-1.5-0.4c-0.4-0.3-0.7-0.6-1-0.8c-0.3-0.3-0.4-0.7-0.6-1.1s-0.4-0.8-0.6-1.4c0.1-0.3,0.1-0.7,0.1-1.2
				c0-0.6-0.3-1-0.6-1.2c0.3,0,0.4-0.3,0.6-0.7s0.1-0.7,0-0.8c0.6-0.1,1.1-0.3,1.8-0.3c0.6,0,1.2-0.1,1.8-0.1c0.6,0,1.2-0.1,1.8-0.1
				c0.6-0.1,1-0.3,1.4-0.6c1.7,0,3.4-0.1,5.2-0.1s3.6-0.1,5.1-0.3c0.6,0.1,1.2,0.3,2.1,0.3c0.8,0,1.5,0,2.3,0.1
				c0.8,0.1,1.5,0.3,2.1,0.7c0.6,0.3,1,1,1.2,1.7c0.6,0,0.8,0.1,1.1,0.4c0.3,0.1,0.4,0.4,0.4,0.7s0.1,0.6,0.1,1c0,0.3,0,0.7,0,1
				c-0.6,0.4-1.2,0.7-1.9,1c-0.8,0.3-1.7,0.4-2.6,0.6c-1,0.1-1.9,0.3-2.9,0.3c-1,0-2.1,0.1-3,0.1c-0.1,1.1-0.4,2.3-0.8,3.7
				c-0.4,1.5-0.8,2.9-1.2,4.3c-0.4,1.4-0.8,2.6-1.1,3.7c-0.3,1.1-0.4,1.8-0.4,2.1c-0.3,0.7-0.6,1.4-0.8,1.9s-0.4,1-0.6,1.5
				c-0.1,0.4-0.4,1-0.6,1.4s-0.4,1-0.7,1.5h3.3c0,0.4,0.3,0.6,0.4,0.7c0.3,0.1,0.4,0.3,0.7,0.3c0.3,0.1,0.6,0.3,0.7,0.4
				c0.3,0.1,0.3,0.4,0.3,0.7c0.6,0.1,1,0.4,1.2,0.7c0.1,0.3,0.1,0.7,0.1,1.1c-0.1,0.4-0.3,0.7-0.6,1.1s-0.4,0.7-0.7,1
				c-0.3,0-0.6,0-0.8,0.3s-0.6,0.4-0.7,0.7c-1-0.1-1.9-0.1-2.8,0c-1,0.1-1.8,0.1-2.5,0.3c-0.1,0-0.3,0.1-0.1,0.3
				c0,0.1,0,0.3-0.1,0.3c-1-0.3-2.1-0.4-3.2-0.4s-2.2,0.3-3.2,0.4c-1.1,0.3-2.2,0.6-3.3,0.8C603.2,200.1,602.1,200.3,600.8,200.3z"
				/>
		</g>
		<g>
			<path fill="#C1E5E1" d="M626.5,177.7c0.1-0.6,0.1-0.8,0.1-1.2c0-0.3-0.1-0.7-0.3-1c0.1-0.6,0.3-1,0.3-1.2c0.1-0.3,0.1-0.7,0-1.2
				c0.3-0.8,0.7-1.5,1.4-2.2c0.6-0.6,1.2-1.1,1.9-1.5s1.5-0.7,2.2-1c0.8-0.3,1.5-0.6,2.2-0.7c0-0.1,0-0.1-0.1-0.1s-0.1-0.1-0.1-0.3
				c1.8-0.3,3.6-0.8,5.2-1.4c1.8-0.6,3.6-1.2,5.5-1.7c1.8-0.6,3.7-0.8,5.8-1c1.9-0.1,4,0.1,6.2,0.7c0.1,0.4,0.3,0.8,0.6,1.1
				c0.3,0.4,0.4,0.7,0.7,1.1c0.3,0.3,0.4,0.7,0.7,1c0.1,0.3,0.3,0.7,0.3,1c0.4,0.4,0.7,0.7,1,1.1s0.3,1,0.1,1.7
				c-0.4,0.3-0.7,0.6-1.1,0.8s-0.8,0.6-1.2,0.7c-1.5-0.4-2.9-0.6-4.4-0.4c-1.5,0.1-2.8,0.3-4,0.3c-0.4-0.4-0.8-0.6-1.2-0.6
				c-0.6,0-1,0.1-1.5,0.3c-0.6,0.1-1.1,0.3-1.7,0.4c-0.6,0.1-1,0.1-1.5,0.1c-0.4,0.3-0.8,0.6-1.4,0.7c-0.6,0.1-1.2,0.1-1.8,0.3
				c0,0.1,0,0.3,0.1,0.3s0.1,0.1,0,0.4c0.3,0.3,0.6,0.6,1,0.6c0.4,0.1,0.8,0.3,1.2,0.3c0.4,0.1,0.8,0.3,1.1,0.4
				c0.3,0.1,0.6,0.4,0.7,0.8c0.6,0,1.1,0.1,1.5,0.4c0.4,0.3,0.8,0.6,1.1,1c0.3,0.4,0.6,0.8,0.7,1.2c0.1,0.4,0.1,0.8,0.1,1.2
				c0.1,0.3,0.3,0.4,0.4,0.4c0.1,0,0.3,0,0.6,0.3c0.1,0.6,0.4,1,1,1.5c0.4,0.6,0.8,1.1,1.1,1.8c0,1,0.1,1.8,0.1,2.6
				c0,0.8-0.1,1.5-0.4,2.3c-0.6,1.4-1.4,2.8-2.3,3.9c-1.1,1.1-2.2,2.2-3.6,3c-1.4,0.8-2.8,1.7-4.1,2.2c-1.5,0.7-2.9,1.1-4.4,1.7
				c-0.1,0-0.3,0-0.4,0c-0.1,0-0.3,0-0.1-0.3c-0.3,0.3-0.7,0.4-1,0.6c-0.4,0-0.8,0.1-1.2,0.1c-0.4,0-0.8,0-1.4-0.1s-0.8,0-1.2,0
				c-0.3-0.3-0.6-0.6-0.7-0.8c-0.3-0.3-0.4-0.6-0.6-1c-0.1,0-0.3-0.1-0.3-0.3c0-0.1,0-0.3-0.3-0.3c0-0.1,0-0.3,0-0.3s0-0.1,0.1-0.1
				c0.1-0.1,0.1-0.1,0.1-0.3c0,0,0-0.1-0.1-0.1s-0.1-0.1-0.3-0.1s-0.1-0.1-0.1-0.3c0.1-0.3,0.3-0.7,0.1-1.1c0-0.4-0.1-0.8-0.1-1.2
				c0-0.4,0-0.8,0.1-1.2c0.1-0.4,0.4-0.7,0.8-1c1.4,0.1,2.6,0,3.7-0.1c1.2-0.3,2.3-0.6,3.3-1.1c1.1-0.4,2.1-1,3-1.5
				c1-0.6,1.9-1.1,2.8-1.5c0.1-0.3,0.3-0.6,0.4-0.8c0.3-0.3,0.4-0.4,0.7-0.7s0.4-0.4,0.7-0.7s0.3-0.6,0.4-1c0-0.1,0-0.3,0-0.3
				l-0.1-0.1l-0.1-0.1c0,0-0.1-0.1-0.1-0.3c-0.1,0-0.1,0-0.3-0.1c-0.1,0-0.1,0-0.3,0c-0.8-0.4-1.8-0.8-2.8-1.1c-1-0.3-1.8-0.6-2.3-1
				c-0.4,0.3-0.8,0.3-1.2,0.1c-0.4-0.1-0.8-0.3-1.4-0.4c-1.4,0-2.6-0.1-3.9-0.4c-1.2-0.1-2.3-0.6-3.6-1c0-0.1-0.1-0.4-0.3-0.6
				c-0.1-0.1-0.3-0.1-0.7-0.1c-0.3-0.3-0.4-0.7-0.7-1C626.9,178.3,626.8,178.1,626.5,177.7z"/>
		</g>
		<g>
			<path fill="#C1E5E1" d="M655.4,177.7c0.1-0.6,0.1-0.8,0.1-1.2c0-0.3-0.1-0.7-0.3-1c0.1-0.6,0.3-1,0.3-1.2c0.1-0.3,0.1-0.7,0-1.2
				c0.3-0.8,0.7-1.5,1.4-2.2c0.6-0.6,1.2-1.1,1.9-1.5s1.5-0.7,2.2-1c0.8-0.3,1.5-0.6,2.2-0.7c0-0.1,0-0.1-0.1-0.1s-0.1-0.1-0.1-0.3
				c1.8-0.3,3.6-0.8,5.2-1.4c1.8-0.6,3.6-1.2,5.5-1.7c1.8-0.6,3.7-0.8,5.8-1c1.9-0.1,4,0.1,6.2,0.7c0.1,0.4,0.3,0.8,0.6,1.1
				c0.3,0.4,0.4,0.7,0.7,1.1c0.3,0.3,0.4,0.7,0.7,1c0.1,0.3,0.3,0.7,0.3,1c0.4,0.4,0.7,0.7,1,1.1s0.3,1,0.1,1.7
				c-0.4,0.3-0.7,0.6-1.1,0.8s-0.8,0.6-1.2,0.7c-1.5-0.4-2.9-0.6-4.4-0.4c-1.5,0.1-2.8,0.3-4,0.3c-0.4-0.4-0.8-0.6-1.2-0.6
				c-0.6,0-1,0.1-1.5,0.3c-0.6,0.1-1.1,0.3-1.7,0.4c-0.6,0.1-1,0.1-1.5,0.1c-0.4,0.3-0.8,0.6-1.4,0.7c-0.6,0.1-1.2,0.1-1.8,0.3
				c0,0.1,0,0.3,0.1,0.3s0.1,0.1,0,0.4c0.3,0.3,0.6,0.6,1,0.6c0.4,0.1,0.8,0.3,1.2,0.3c0.4,0.1,0.8,0.3,1.1,0.4
				c0.3,0.1,0.6,0.4,0.7,0.8c0.6,0,1.1,0.1,1.5,0.4c0.4,0.3,0.8,0.6,1.1,1c0.3,0.4,0.6,0.8,0.7,1.2c0.1,0.4,0.1,0.8,0.1,1.2
				c0.1,0.3,0.3,0.4,0.4,0.4c0.1,0,0.3,0,0.6,0.3c0.1,0.6,0.4,1,1,1.5c0.4,0.6,0.8,1.1,1.1,1.8c0,1,0.1,1.8,0.1,2.6
				c0,0.8-0.1,1.5-0.4,2.3c-0.6,1.4-1.4,2.8-2.3,3.9c-1.1,1.1-2.2,2.2-3.6,3c-1.4,0.8-2.8,1.7-4.1,2.2c-1.5,0.7-2.9,1.1-4.4,1.7
				c-0.1,0-0.3,0-0.4,0c-0.1,0-0.3,0-0.1-0.3c-0.3,0.3-0.7,0.4-1,0.6c-0.4,0-0.8,0.1-1.2,0.1c-0.4,0-0.8,0-1.4-0.1
				c-0.4,0-0.8,0-1.2,0c-0.3-0.3-0.6-0.6-0.7-0.8c-0.3-0.3-0.4-0.6-0.6-1c-0.1,0-0.3-0.1-0.3-0.3c0-0.1,0-0.3-0.3-0.3
				c0-0.1,0-0.3,0-0.3s0-0.1,0.1-0.1c0.1-0.1,0.1-0.1,0.1-0.3c0,0,0-0.1-0.1-0.1s-0.1-0.1-0.3-0.1s-0.1-0.1-0.1-0.3
				c0.1-0.3,0.3-0.7,0.1-1.1c0-0.4-0.1-0.8-0.1-1.2c0-0.4,0-0.8,0.1-1.2c0.1-0.4,0.4-0.7,0.8-1c1.4,0.1,2.6,0,3.7-0.1
				c1.2-0.3,2.3-0.6,3.3-1.1c1.1-0.4,2.1-1,3-1.5c1-0.6,1.9-1.1,2.8-1.5c0.1-0.3,0.3-0.6,0.4-0.8c0.3-0.3,0.4-0.4,0.7-0.7
				s0.4-0.4,0.7-0.7s0.3-0.6,0.4-1c0-0.1,0-0.3,0-0.3l-0.1-0.1l-0.1-0.1c0,0-0.1-0.1-0.1-0.3c-0.1,0-0.1,0-0.3-0.1
				c-0.1,0-0.1,0-0.3,0c-0.8-0.4-1.8-0.8-2.8-1.1c-1-0.3-1.8-0.6-2.3-1c-0.4,0.3-0.8,0.3-1.2,0.1c-0.4-0.1-0.8-0.3-1.4-0.4
				c-1.4,0-2.6-0.1-3.9-0.4c-1.2-0.1-2.3-0.6-3.6-1c0-0.1-0.1-0.4-0.3-0.6c-0.1-0.1-0.3-0.1-0.7-0.1c-0.3-0.3-0.4-0.7-0.7-1
				C655.9,178.3,655.6,178.1,655.4,177.7z"/>
		</g>
		<g>
			<path fill="#C1E5E1" d="M687.2,175.4c0-0.4-0.1-0.7-0.3-0.8c0.3-0.6,0.4-1.1,0.6-1.8c0.1-0.6,0.1-1.1,0.3-1.7
				c0-0.4,0.1-0.8,0.3-1.2s0.1-0.8,0.3-1.1c0.6-0.1,1-0.4,1.2-0.7s0.6-0.7,0.7-1c0.6,0,1,0,1.1,0.3c0.1,0.1,0.4,0.6,0.6,1
				c0.1,0.4,0.4,0.7,0.7,1.1s0.7,0.7,1.4,1c0.1,0.4,0.3,0.7,0.3,1c0.1,0.3,0.3,0.7,0.4,1c0.3,0.7,0.6,1.4,0.8,2.1s0.4,1.4,0.4,2.1
				c-0.4,0.7-0.7,1.7-1,2.6c-0.3,1-0.3,1.9-0.4,2.9c0,1,0,1.9,0.1,2.9s0.3,1.7,0.6,2.3l0.3,0.8l1.1-0.1c1.2-0.3,2.2-0.7,3.2-1
				c1-0.4,1.8-0.8,2.6-1.4s1.7-1.1,2.3-1.8c0.7-0.7,1.5-1.5,2.3-2.3c0.8-1,1.5-1.9,2.1-3.2c0.6-1.1,1.1-2.3,1.5-3.6s0.7-2.5,1-3.7
				s0.4-2.3,0.4-3.4c0.6-0.3,1-0.8,1-1.4l-0.1-0.7c-0.1-0.1-0.1-0.3-0.1-0.4c0-0.1,0-0.3,0.1-0.4c0.3-0.7,0.8-1.2,1.7-1.7
				c0.6,0.4,1.1,0.8,1.7,1.2s1,1,1.4,1.4c0,0.8,0.1,1.7,0.4,2.2c0.1,0.7,0.4,1.2,0.7,1.8c0.3,0.6,0.4,1.1,0.6,1.7
				c0.1,0.6,0.3,1.1,0.4,1.9c-0.3,1-0.6,1.9-0.7,2.8c-0.1,0.8-0.3,1.8-0.4,2.8l-0.1,0.6c-0.6,1-1.1,2.1-1.8,3.2
				c-0.6,1.1-1.1,1.9-1.4,2.8c-0.1,0.1-0.4,0.4-0.6,0.7c-0.1,0.3-0.3,0.6-0.4,0.8c0,0.1-0.1,0.3-0.3,0.6s-0.3,0.4-0.3,0.6l-1.2-0.4
				v1.5l-0.8,0.1l-0.6,0.7c-0.7,1.2-1.5,2.3-2.3,3.3c-0.8,0.8-1.8,1.7-2.8,2.3c-1,0.7-2.2,1.4-3.4,1.9s-2.8,1.2-4.4,1.9
				c-0.7-0.1-1.2-0.1-1.7-0.1s-1,0-1.4-0.1c-0.4,0-1,0-1.4,0c-0.4,0-1-0.1-1.5-0.1c-0.1-0.3-0.3-0.6-0.6-0.7
				c-0.3-0.1-0.4-0.1-0.7-0.1c-0.7-0.3-1.1-0.8-1.5-1.4c-0.3-0.6-0.7-1.2-1-1.9c-0.1-0.4-0.3-0.8-0.6-1.2c-0.1-0.4-0.4-0.8-0.7-1.1
				l1-0.3l-1.2-1.5c-0.1-0.1-0.1-0.1-0.3-0.3c-0.1-0.1-0.3-0.3-0.3-0.3v-1c-0.1-2.6-0.1-5.1-0.1-7.4c0-2.2,0.3-4.3,1-5.9
				L687.2,175.4z"/>
		</g>
		<g>
			<path fill="#C1E5E1" d="M721.2,198.1c-0.3-0.3-0.4-0.6-0.6-1c-0.1-0.4-0.4-0.7-0.8-0.8c0-0.6-0.1-1.1-0.3-1.7
				c-0.1-0.7-0.3-1.2-0.3-1.9c-0.1-0.7-0.1-1.4-0.3-2.1c0-0.7,0-1.2,0.1-1.8c0-0.3,0.1-0.6,0.3-0.8c0.1-0.3,0.3-0.6,0.4-0.7
				c0.1-0.3,0.3-0.6,0.3-0.7c0.1-0.3,0.1-0.6,0-0.8c0.1,0,0.3-0.1,0.4-0.3c0-0.1,0.1-0.3,0.4-0.1c0.3-0.7,0.4-1.4,0.7-2.1
				c0.3-0.6,0.6-1.2,0.8-1.8c0.3-0.6,0.6-1.2,1-1.8c0.3-0.6,0.6-1.2,0.8-2.1c-0.6-0.6-1-1.1-1.2-1.7s-0.4-1.2-0.6-1.8
				c-0.1-0.6-0.3-1.2-0.3-1.9c0-0.7-0.1-1.2-0.4-1.9c0.4-0.6,0.8-1.1,1.4-1.4c0.6-0.4,1.1-0.7,1.8-1c0.7-0.3,1.4-0.4,2.2-0.6
				c0.8-0.1,1.7-0.3,2.5-0.6c1.5-0.6,3-0.8,4.3-1.1c1.2-0.3,2.5-0.6,3.6-0.7c1.2-0.1,2.3-0.3,3.7-0.6c1.4-0.3,2.8-0.4,4.4-0.7
				c0,0.1,0.1,0.1,0.1,0.1c0.1,0,0.1,0,0.3,0c0.1,0.3,0.3,0.3,0.6,0.3c0-0.1,0-0.1,0-0.3c0-0.1,0-0.1,0-0.3c0,0,0.1,0,0.3,0
				c0.1,0,0.3,0,0.3,0.1c0.1,0,0.1,0,0.3,0c0,0,0.1-0.1,0-0.3c0.4,0.7,0.8,1.2,1.5,1.7c0.6,0.4,1.2,0.8,2.1,1.1c0,0.3,0,0.6,0,0.7
				c0,0.1,0,0.3-0.1,0.4c0,0.1,0,0.3,0,0.4c0,0.1,0,0.4,0.1,0.6c-0.6,0.8-1.1,1.5-1.8,2.1c-0.7,0.6-1.4,0.8-2.1,1.1
				c-0.7,0.3-1.5,0.4-2.3,0.6c-0.8,0.1-1.7,0.3-2.5,0.4c-0.8,0.1-1.8,0.4-2.6,0.6c-0.8,0.3-1.8,0.7-2.6,1.2
				c-0.3-0.1-0.6-0.1-0.7-0.1c-0.3,0-0.4,0-0.7,0.1c-0.3,0-0.4,0.1-0.7,0.1s-0.6,0-1,0c-0.3,0.3-0.6,0.4-1,0.6
				c-0.3,0.1-0.7,0.1-1.1,0.3c0.1,0.4,0.3,0.7,0.3,1.1c0,0.4,0,0.7,0.1,1c1.4,0.1,2.9,0.1,4.6,0c1.7-0.1,3.3-0.3,4.8-0.3
				c0,0.1,0,0.3,0,0.3s-0.1,0.1-0.1,0.3c0.3,0.1,0.6,0.4,0.8,0.7c0.3,0.3,0.6,0.6,0.8,0.8c0.3,0.3,0.6,0.6,0.8,0.7
				c0.3,0.1,0.7,0.3,1,0.3c0.1,0.3,0.3,0.7,0.3,1c0,0.4,0,0.7-0.1,1.1c-0.7,0.4-1.2,0.8-1.9,1.2c-0.7,0.4-1.2,0.8-1.9,1.2
				c-0.7,0.4-1.4,0.7-2.2,0.8c-0.8,0.3-1.7,0.3-2.5,0.3c-0.1,0-0.3,0-0.4,0c-0.1,0-0.3,0-0.4-0.1c-0.3,0.1-0.7,0.3-1.2,0.1
				c-0.6,0-1,0-1.4,0.1c-0.4-0.1-1-0.3-1.7-0.3c-0.6,0-1.1-0.1-1.7-0.3c-0.6,0.8-1.1,1.8-1.7,2.6c-0.6,1-1,1.9-1.4,2.9
				c1.4,0.1,2.5,0.3,3.3,0.3c0.8,0,1.7-0.1,2.5-0.1c0.8-0.1,1.7-0.1,2.5-0.3c0.8-0.1,1.8-0.1,3-0.1c0.8-0.4,1.8-0.7,2.8-0.8
				c1.1-0.1,2.1-0.4,2.9-0.7c0.3,0.1,0.6,0.3,0.8,0.6c0.3,0.3,0.4,0.6,0.7,0.8s0.4,0.6,0.7,0.7s0.6,0.3,0.8,0.1
				c0.1,0.1,0.3,0.4,0.3,0.6c0,0.3,0.1,0.4,0.1,0.7c0,0.1,0.1,0.4,0.3,0.4c0.1,0.1,0.3,0.1,0.6,0.1c-0.7,1.2-1.4,2.2-2.1,2.9
				c-0.8,0.7-1.7,1.2-2.6,1.7c-1,0.4-2.1,0.7-3.2,0.8c-1.2,0.1-2.5,0.4-4,0.7c-0.4,0-0.7,0-1,0c-0.3-0.1-0.6-0.1-0.7-0.1
				c-1,0.1-1.9,0.3-3.3,0.6c-1.2,0.1-2.5,0.3-3.7,0.1c-1.2-0.1-2.5-0.1-3.7-0.6C723,199.3,722.1,198.8,721.2,198.1z"/>
		</g>
		<g>
			<path fill="#C1E5E1" d="M750.5,177.7c0.1-0.6,0.1-0.8,0.1-1.2c0-0.3-0.1-0.7-0.3-1c0.1-0.6,0.3-1,0.3-1.2c0.1-0.3,0.1-0.7,0-1.2
				c0.3-0.8,0.7-1.5,1.4-2.2c0.6-0.6,1.2-1.1,1.9-1.5c0.7-0.4,1.5-0.7,2.2-1c0.8-0.3,1.5-0.6,2.2-0.7c0-0.1,0-0.1-0.1-0.1
				c-0.1,0-0.1-0.1-0.1-0.3c1.8-0.3,3.6-0.8,5.2-1.4c1.8-0.6,3.6-1.2,5.5-1.7c1.8-0.6,3.7-0.8,5.8-1c1.9-0.1,4,0.1,6.2,0.7
				c0.1,0.4,0.3,0.8,0.6,1.1c0.3,0.4,0.4,0.7,0.7,1.1c0.3,0.3,0.4,0.7,0.7,1c0.1,0.3,0.3,0.7,0.3,1c0.4,0.4,0.7,0.7,1,1.1
				s0.3,1,0.1,1.7c-0.4,0.3-0.7,0.6-1.1,0.8s-0.8,0.6-1.2,0.7c-1.5-0.4-2.9-0.6-4.4-0.4c-1.5,0.1-2.8,0.3-4,0.3
				c-0.4-0.4-0.8-0.6-1.2-0.6c-0.6,0-1,0.1-1.5,0.3c-0.6,0.1-1.1,0.3-1.7,0.4c-0.6,0.1-1,0.1-1.5,0.1c-0.4,0.3-0.8,0.6-1.4,0.7
				c-0.6,0.1-1.2,0.1-1.8,0.3c0,0.1,0,0.3,0.1,0.3c0.1,0,0.1,0.1,0,0.4c0.3,0.3,0.6,0.6,1,0.6c0.4,0.1,0.8,0.3,1.2,0.3
				c0.4,0.1,0.8,0.3,1.1,0.4c0.3,0.1,0.6,0.4,0.7,0.8c0.6,0,1.1,0.1,1.5,0.4c0.4,0.3,0.8,0.6,1.1,1c0.3,0.4,0.6,0.8,0.7,1.2
				c0.1,0.4,0.1,0.8,0.1,1.2c0.1,0.3,0.3,0.4,0.4,0.4c0.1,0,0.3,0,0.6,0.3c0.1,0.6,0.4,1,1,1.5c0.4,0.6,0.8,1.1,1.1,1.8
				c0,1,0.1,1.8,0.1,2.6c0,0.8-0.1,1.5-0.4,2.3c-0.6,1.4-1.4,2.8-2.3,3.9c-1.1,1.1-2.2,2.2-3.6,3c-1.4,0.8-2.8,1.7-4.1,2.2
				c-1.5,0.7-2.9,1.1-4.4,1.7c-0.1,0-0.3,0-0.4,0c-0.1,0-0.3,0-0.1-0.3c-0.3,0.3-0.7,0.4-1,0.6c-0.4,0-0.8,0.1-1.2,0.1
				c-0.4,0-0.8,0-1.4-0.1s-0.8,0-1.2,0c-0.3-0.3-0.6-0.6-0.7-0.8c-0.3-0.3-0.4-0.6-0.6-1c-0.1,0-0.3-0.1-0.3-0.3
				c0-0.1,0-0.3-0.3-0.3c0-0.1,0-0.3,0-0.3s0-0.1,0.1-0.1c0.1-0.1,0.1-0.1,0.1-0.3c0,0,0-0.1-0.1-0.1c-0.1,0-0.1-0.1-0.3-0.1
				s-0.1-0.1-0.1-0.3c0.1-0.3,0.3-0.7,0.1-1.1c0-0.4-0.1-0.8-0.1-1.2c0-0.4,0-0.8,0.1-1.2c0.1-0.4,0.4-0.7,0.8-1
				c1.4,0.1,2.6,0,3.7-0.1c1.2-0.3,2.3-0.6,3.3-1.1c1.1-0.4,2.1-1,3-1.5c1-0.6,1.9-1.1,2.8-1.5c0.1-0.3,0.3-0.6,0.4-0.8
				c0.3-0.3,0.4-0.4,0.7-0.7s0.4-0.4,0.7-0.7s0.3-0.6,0.4-1c0-0.1,0-0.3,0-0.3l-0.1-0.1l-0.1-0.1c0,0-0.1-0.1-0.1-0.3
				c-0.1,0-0.1,0-0.3-0.1c-0.1,0-0.1,0-0.3,0c-0.8-0.4-1.8-0.8-2.8-1.1c-1-0.3-1.8-0.6-2.3-1c-0.4,0.3-0.8,0.3-1.2,0.1
				c-0.4-0.1-0.8-0.3-1.4-0.4c-1.4,0-2.6-0.1-3.9-0.4c-1.2-0.1-2.3-0.6-3.6-1c0-0.1-0.1-0.4-0.3-0.6c-0.1-0.1-0.3-0.1-0.7-0.1
				c-0.3-0.3-0.4-0.7-0.7-1C750.9,178.3,750.8,178.1,750.5,177.7z"/>
		</g>
	</g>
	<g>
		<g>
			<path fill="#C1E5E1" d="M766.5,224.1c-102.8-0.3-205.4,3.6-307.9,11.4c-4.6,0.4-4.6,7.2,0,6.8c102.3-7.9,205.1-11.7,307.9-11.4
				C771,231,771,224.1,766.5,224.1z"/>
		</g>
	</g>
	<g>
		<path fill="#FFFFFF" d="M201.1,191.6h15.3l18.6,33.5l18.2-33.5h15.4l3.3,71.4h-16.2l-2-46.7L239,244.2h-8.3L215,216.7l-1.8,46.3
			h-15.4L201.1,191.6z"/>
	</g>
</g>
</svg>
