<?xml version="1.0" encoding="utf-8"?>
<!-- Generator: Adobe Illustrator 18.1.1, SVG Export Plug-In . SVG Version: 6.00 Build 0)  -->
<svg version="1.1" id="Layer_1" xmlns="http://www.w3.org/2000/svg" xmlns:xlink="http://www.w3.org/1999/xlink" x="0px" y="0px"
	 viewBox="0 0 580 160" enable-background="new 0 0 580 160" xml:space="preserve">
<g>
	<g>
		<g>
			<path fill="#FFFFFF" d="M53.6,71.2c1.3-2.6,1.9-6.3,1.9-9.1c0-3.3-5.9-5.6-14-5.6c-2.9,0-5.3,0-7.2,0.4c-1.4,4-1.4,7.1-1.3,8.6
				c0,0,0.6-1.2,1.3-2.2c0.2,8.7,6,11.8,8.6,12.8C50.3,75.9,52.2,73.9,53.6,71.2z M49.2,61.4c0.3,0,0.6,0.1,0.8,0.2
				c-0.2,0.3-0.3,0.7-0.3,1.1c0,0.8,0.4,1.5,0.9,1.5c0.3,0,0.6-0.3,0.8-0.8c0.3,0.7,0.4,1.5,0.4,2.4c0,2.4-1.2,4.4-2.6,4.4
				c-1.5,0-2.6-2-2.6-4.4C46.5,63.3,47.7,61.4,49.2,61.4z"/>
		</g>
		<g>
			<path fill="#FFFFFF" d="M31.6,85.7c-1,2.5,0.1,3.3-0.6,3.3c-0.6,0-1.7-2.4-1.7-3.5s0.4-2.3,0.4-2.3s-2.1,1-2.1,0.3
				c0-2.2,3.1-4.1,3.1-4.1c-1.1,0-1.6-0.4-1.6-0.6c0-0.2,0.6-0.6,2.6-1.1l0-0.1c0,0-8.1-5.9-11.3-5.9s-5.7,4.3-5.7,10.2
				s3.3,11.1,8.5,11.1s10.8-3.6,10.8-3.6l0-0.1C31.9,88.5,31.6,85.7,31.6,85.7z"/>
		</g>
		<g>
			<rect x="25.7" y="58.9" fill="#FFFFFF" width="2.7" height="0"/>
		</g>
		<g>
			<path fill="#FFFFFF" d="M60.7,56.5C66.1,56.4,70,54,82.1,54c1.4,0,3,0.1,4.3,0.1c-0.3-0.6-0.5-1.2-0.5-1.7v0
				c-3-4.9-6.5-7.3-11.5-7.3c-7.5,0-13.3,4.2-13.5,4.4c0,0-0.1,0-0.2-0.1c-0.8-1.2-2.2-2.3-3.5-3.4c-1.3-1-1.3-0.3-0.6,1.1
				c-2.3-1-5.6-2-9.3-2c-5.3,0-9.4,2.8-11.5,8.3c-0.1,0.2-0.2,0.5-0.4,0.7c1.2-0.1,2.5-0.1,3.9-0.1C51.5,54,55.4,56.4,60.7,56.5z
				 M64.9,52c6-2.3,12.6-0.5,12.6-0.5c-7.9-0.4-12.6,1.9-12.6,1.9V52z M56.9,52v1.4c0,0-4.7-2.3-12.6-1.9
				C44.3,51.5,48.9,49.7,56.9,52z"/>
		</g>
		<g>
			<path fill="#FFFFFF" d="M60.7,63.8c-7.7,0.3,1.4,15.1-18.2,15.1c0,0,0,0-0.1,0c-2.6,3-2.7,21.2-2.7,27.4
				c0,7.3,11.6,17.9,11.6,17.9s2.7,0.7,9.2,0.7c0,0,0,0,0,0h0c6.6,0,9.2-1,9.2-1s11.6-10.9,11.6-18.3c0-6.2,0-22.6-2.7-27.6
				C59.4,78,68.5,64.1,60.7,63.8z M62.8,80c0.4,0,1.1-0.1,3.8-0.1c2.8,0,4.8,1,4.8,1h-5.6c0,0-1.2,2.2-2,2.2c-0.8,0-0.6-0.4-0.6-0.4
				l-1,2.1C62.1,84.9,62.4,80,62.8,80z M55,79.9c2.8,0,3.5,0.2,3.8,0.2s0.7,4.8,0.7,4.8l-1-2.2c0,0,0.1,0.4-0.6,0.4
				c-0.8,0-2-2.2-2-2.2h-5.6C50.2,80.9,52.3,79.9,55,79.9z M60.7,113.2c-1.9,0-2.9-1.3-2.9-1.3h5.7
				C63.6,111.9,62.6,113.2,60.7,113.2z M73.2,104.9c0,0-8.3,1.7-12.4,1.7c-5.7,0-9.7-0.9-9.7-0.9l-6.8-8.2l6.8,5.7
				c0,0,5.1,0.7,11.1,0.7c6.1,0,10-0.4,10-0.4l4.4-2.6L73.2,104.9z"/>
		</g>
		<g>
			<rect x="93.2" y="58.9" fill="#FFFFFF" width="2.7" height="0"/>
		</g>
		<g>
			<path fill="#FFFFFF" d="M87.1,56.8c-1.9-0.3-4.3-0.4-7.1-0.4c-8.1,0-14,2.3-14,5.6c0,2.8,0.6,6.5,1.9,9.1
				c1.4,2.7,3.2,4.7,10.5,4.8c2.7-1,8.5-4.2,8.6-13.1c0.8,1.2,1.5,2.6,1.5,2.6C88.7,63.9,88.6,60.8,87.1,56.8z M72,70.2
				c-1.5,0-2.6-2-2.6-4.4c0-2.4,1.2-4.4,2.6-4.4c0.3,0,0.6,0.1,0.8,0.2c-0.2,0.3-0.3,0.7-0.3,1.1c0,0.8,0.4,1.5,0.9,1.5
				c0.3,0,0.6-0.3,0.8-0.8c0.3,0.7,0.4,1.5,0.4,2.4C74.6,68.2,73.5,70.2,72,70.2z"/>
		</g>
		<g>
			<path fill="#FFFFFF" d="M113.9,78.4c-3.1-12.6-10-14.6-13-14.8c-0.3,0-0.5-0.1-0.7-0.1c-1.3,0-3.2,0.8-4.8,1.7
				c0.4-2.1,0.8-2.4,1.9-2.4c0.9,0,1.7-0.7,1.8-1.7l0.3-5.5c0-0.5-0.1-1-0.5-1.3c-0.3-0.3-0.8-0.5-1.3-0.5c-0.8,0-2.1-0.2-3.7-0.5
				c-0.6-0.1-1.3-0.2-2-0.3c-3.3-7.6-9.1-13.6-16.4-17c0.1-0.1,0.1-0.2,0.2-0.4c0.2-0.6,0-1.3-0.5-1.8c-0.9-0.9-2.2-1.5-3.9-1.9
				c0.2,0,0.4-0.1,0.5-0.1c0.9-0.2,1.5-1,1.4-1.9c-0.1-0.9-0.8-1.6-1.7-1.6c-1.6,0-3.1,0.1-4.4,0.2c0.6-0.5,0.9-1.3,0.6-2
				c-0.3-0.8-1-1.2-1.9-1.1c-1,0.1-24.1,3.2-34,22.8c-0.1,0.1-0.1,0.2-0.1,0.3c-0.9,1.4-1.6,2.9-2.3,4.5c-0.6,0.1-1.2,0.2-1.7,0.3
				c-1.5,0.3-2.9,0.5-3.7,0.5c-0.5,0-0.9,0.2-1.3,0.5c-0.3,0.4-0.5,0.8-0.5,1.3l0.3,5.5c0.1,0.9,0.8,1.7,1.8,1.7
				c1,0,1.5,0.3,1.9,2.6c-1.7-0.9-3.7-1.9-5.1-1.9c-3.3,0-9.4,2.8-11.7,12.7c-0.1,0-0.1,0-0.2,0c-0.8,0-1.5,0.7-1.7,1.5
				c-1.6,11.4,2.3,16.7,4.8,18.8c4.1,4.6,10,4.8,11.2,4.8c3.9,0,8.4-2.5,11.3-4.5c0,5.6,0,16.2,0.4,20.8c0,0.5,0.3,0.9,0.6,1.2
				c0,0,3.9,3.3,7.5,7.1c0.6,0.6,1.1,1.2,1.6,1.9c2.1,2.6,4.3,5.2,10,6.2c-0.1,0.3-0.2,0.7-0.1,1c0.2,0.8,0.9,1.4,1.7,1.4
				c0.4,0,0.8,0,1.1,0c0.3,0.6,0.9,1,1.6,1c5.2,0,9.8-2.2,14.3-6.8c1.2-1,2.1-2.1,3.1-3.2c0.4-0.5,0.8-0.9,1.3-1.4
				c3.6-3.8,7.5-7,7.5-7.1c0.4-0.3,0.6-0.7,0.6-1.2c0.4-4.6,0.5-15.3,0.4-20.9c2.9,1.9,7.3,4.4,11.3,4.4c5.6,0,15.1-3.5,15.1-16.4
				c0-1.6-0.1-3.1-0.2-4.5c0.1,0,0.2-0.1,0.3-0.1C113.7,80.1,114.1,79.3,113.9,78.4z M110.3,77c0.5,2.3,0.8,4.9,0.8,8.1
				c0,13.4-10.8,14.7-13.3,14.7c-5.7,0-13.1-6.2-13.1-6.2s0.2,18-0.4,24.2c0,0-3.9,3.3-7.7,7.2c-1.5,1.6-2.7,3.2-4.3,4.5
				c-4.3,4.5-8.6,6.4-13.1,6.4c0,0,2.1-0.4,3-2.8c-0.2,0.5-1.3,1.8-5.7,1.8c0,0,1.6-0.7,1.6-2l0,0c-8.9-0.6-10.1-4.3-13.6-7.9
				c-3.7-3.9-7.7-7.3-7.7-7.3c-0.6-6.2-0.4-24.2-0.4-24.2s-7.4,6.2-13.1,6.2c-1.6,0-6.6-0.5-9.9-4.3c-2-1.7-5.8-6.4-4.3-17.3
				c0,0,0.4,1.6,1.2,2.6c1.4-13.4,8.8-15.2,10.6-15.2c2.1,0,7,3.3,7,3.3c0-0.8,0-1.5,0.1-2.3c-0.4-2.9-0.9-5.2-3.8-5.2L24,55.7
				c1.4,0,3.7-0.5,6.6-1c0.8-2,1.8-3.9,2.9-5.6c-0.1,0-0.1,0.1-0.1,0.1c9.6-19,32.7-21.8,32.7-21.8s-4.3,2.9-6.4,5c0,0,4.4-2,11.8-2
				c0,0-5.4,1.1-7.5,3.2c0,0,7.3-0.7,10,1.8c0,0-2.5,0.4-4.1,0.7c9.4,2.6,17,9.4,20.8,18.8c3.1,0.5,5.5,1,6.9,1l-0.3,5.5
				c-3.4,0-3.4,3-4,6.5c0,0.3,0,0.7,0,1c0,0,4.9-3.4,7-3.4c0.2,0,0.3,0,0.6,0c2.2,0.2,8.6,1.7,11.4,13.5
				C112.2,78.8,111.4,77.6,110.3,77z"/>
		</g>
		<g>
			<path fill="#FFFFFF" d="M100.9,71.6c-3.1,0-11.1,5.8-11.2,5.9c2.2,0.4,2.9,0.9,2.9,1.1c0,0.3-0.6,0.6-1.6,0.6c0,0,3.1,2,3.1,4.1
				c0,0.7-2.1-0.3-2.1-0.3s0.4,1.2,0.4,2.3S91.2,89,90.6,89c-0.6,0,0.4-0.8-0.6-3.3c0,0-0.4,3.2-2.7,3.6c0.1,0.1,5.7,3.6,10.8,3.6
				c5.1,0,8.5-5.2,8.5-11.1S104.1,71.6,100.9,71.6z"/>
		</g>
	</g>
	<g>
		<path fill="#FFFFFF" d="M140.7,62.1h10.7l0.4,4c1.1-1.4,2.6-2.6,4.4-3.5c1.8-0.9,3.8-1.4,6.2-1.4c1.5,0,2.7,0.2,3.9,0.5
			c1.1,0.3,2.1,0.7,3,1.2c0.9,0.5,1.6,1,2.3,1.6c0.6,0.6,1.2,1.2,1.6,1.8c1.5-1.6,3.3-2.9,5.5-3.7c2.2-0.9,4.4-1.3,6.7-1.3
			c4.7,0,8.2,1.3,10.7,4c2.5,2.6,3.7,6.3,3.7,10.8v22.6h-11.2V77.9c0-2.2-0.5-3.9-1.4-5.1c-1-1.2-2.4-1.8-4.3-1.8
			c-2.2,0-3.9,0.8-5.2,2.3c-1.3,1.5-1.9,3.4-1.9,5.8v19.6h-10.8V77.9c0-2.2-0.5-3.9-1.4-5.1c-1-1.2-2.4-1.8-4.3-1.8
			c-2.1,0-3.9,0.8-5.2,2.3c-1.3,1.5-2,3.4-2,5.8v19.6h-11.2V62.1z"/>
		<path fill="#FFFFFF" d="M208.5,46.7h19.5c3.2,0,5.9,0.4,8.2,1.1c2.2,0.8,4,1.8,5.4,3c1.4,1.2,2.4,2.7,3,4.3
			c0.6,1.6,0.9,3.3,0.9,5.1c0,1.7-0.3,3.1-0.9,4.4c-0.6,1.3-1.3,2.4-2.1,3.3c-0.8,0.9-1.7,1.6-2.6,2.1c-0.9,0.5-1.6,0.9-2.2,1
			c0.9,0.3,1.9,0.7,3.1,1.2c1.2,0.5,2.4,1.3,3.5,2.3c1.1,1,2,2.3,2.8,3.8c0.8,1.5,1.1,3.3,1.1,5.4c0,2.7-0.5,5-1.4,6.8
			c-1,1.9-2.3,3.4-4,4.6c-1.7,1.2-3.9,2.1-6.4,2.6c-2.5,0.5-5.3,0.8-8.4,0.8h-19.5V46.7z M226.8,67.5c0.9,0,1.8-0.1,2.6-0.3
			c0.9-0.2,1.6-0.5,2.3-1s1.2-1,1.6-1.8c0.4-0.8,0.6-1.7,0.6-2.8c0-1.1-0.2-2.1-0.6-2.8c-0.4-0.8-1-1.3-1.6-1.8
			c-0.7-0.4-1.4-0.8-2.3-0.9c-0.9-0.2-1.7-0.3-2.5-0.3h-6.9v11.7H226.8z M227.5,89.6c0.8,0,1.8-0.1,2.8-0.2c1-0.1,2-0.4,2.9-0.9
			c0.9-0.5,1.6-1.1,2.2-2c0.6-0.9,0.9-2.1,0.9-3.7c0-1.4-0.3-2.5-0.9-3.4c-0.6-0.9-1.3-1.6-2.2-2.1c-0.9-0.5-1.8-0.8-2.9-1
			c-1-0.2-2-0.3-2.9-0.3h-7.6v13.5H227.5z"/>
		<path fill="#FFFFFF" d="M253,80.3c0-2.7,0.5-5.2,1.4-7.6c1-2.4,2.3-4.4,4-6.2c1.7-1.8,3.8-3.2,6.2-4.2c2.4-1,5.1-1.5,8-1.5
			c2.9,0,5.6,0.5,7.9,1.5c2.4,1,4.4,2.4,6.2,4.2c1.7,1.8,3,3.8,4,6.2c1,2.4,1.4,4.9,1.4,7.6c0,2.7-0.5,5.2-1.4,7.6
			c-1,2.4-2.3,4.4-4,6.2c-1.7,1.8-3.8,3.2-6.2,4.2c-2.4,1-5,1.6-7.9,1.6c-2.9,0-5.6-0.5-8-1.6c-2.4-1-4.5-2.4-6.2-4.2
			c-1.7-1.8-3-3.8-4-6.2C253.5,85.6,253,83,253,80.3z M272.6,90.2c1.4,0,2.6-0.3,3.7-0.8c1.1-0.5,2-1.3,2.8-2.2
			c0.8-0.9,1.3-2,1.7-3.2c0.4-1.2,0.5-2.4,0.5-3.6s-0.2-2.5-0.5-3.6c-0.4-1.2-0.9-2.2-1.7-3.1c-0.8-0.9-1.7-1.6-2.8-2.2
			c-1.1-0.5-2.3-0.8-3.7-0.8s-2.7,0.3-3.8,0.8c-1.1,0.5-2,1.3-2.8,2.2c-0.7,0.9-1.3,1.9-1.7,3.1c-0.4,1.2-0.6,2.4-0.6,3.6
			s0.2,2.5,0.6,3.6c0.4,1.2,0.9,2.2,1.7,3.2c0.7,0.9,1.6,1.7,2.8,2.2C269.9,89.9,271.2,90.2,272.6,90.2z"/>
		<path fill="#FFFFFF" d="M298,104.4c0.6,0.5,1.3,0.9,2.1,1.2c0.8,0.4,1.6,0.5,2.5,0.5c1.2,0,2.2-0.4,3-1.1c0.8-0.8,1.6-2,2.3-3.9
			l1.1-3l-16.7-36.1H305l9.1,23l8.3-23h11.9l-14.9,36.3c-0.8,2-1.6,4-2.5,6c-0.8,2-1.8,3.8-3,5.4c-1.2,1.6-2.6,2.9-4.3,3.9
			c-1.7,1-3.8,1.5-6.3,1.5c-2,0-3.8-0.3-5.4-0.8c-1.6-0.5-3.1-1.3-4.4-2.3L298,104.4z"/>
		<path fill="#FFFFFF" d="M353.8,46.7h11.8v51.9h-11.8V46.7z"/>
		<path fill="#FFFFFF" d="M377.5,87.4c1.2,1.1,2.8,2,4.7,2.7c1.9,0.7,3.8,1.1,5.6,1.1c1.7,0,3-0.2,4.1-0.6c1.1-0.4,1.6-1.2,1.6-2.4
			c0-0.5-0.1-0.9-0.4-1.3c-0.2-0.4-0.7-0.8-1.3-1.1c-0.6-0.3-1.5-0.7-2.6-1.1c-1.1-0.4-2.5-0.8-4.2-1.2c-1.4-0.4-2.8-0.8-4.2-1.4
			c-1.4-0.6-2.6-1.3-3.7-2.2c-1.1-0.9-1.9-1.9-2.6-3.2s-1-2.7-1-4.4c0-1.7,0.4-3.3,1.2-4.6c0.8-1.4,1.9-2.6,3.2-3.6
			c1.4-1,3-1.8,4.9-2.3c1.9-0.5,3.9-0.8,6.1-0.8c3.1,0,5.8,0.4,8.2,1.1c2.3,0.7,4.5,1.7,6.5,3.1l-4.7,7.4c-1.2-0.8-2.6-1.5-4.1-2.1
			c-1.5-0.6-3.3-0.9-5.2-0.9c-1.7,0-3,0.2-3.7,0.7c-0.8,0.5-1.2,1.2-1.2,2c0,1.2,0.8,2.1,2.4,2.6c1.6,0.6,3.8,1.2,6.5,1.9
			c3.7,1,6.4,2.5,8.1,4.3c1.7,1.8,2.5,4.2,2.5,7.2c0,2-0.5,3.8-1.4,5.2c-0.9,1.5-2.1,2.7-3.7,3.6c-1.5,1-3.3,1.7-5.2,2.1
			c-1.9,0.5-3.9,0.7-6,0.7c-3.3,0-6.4-0.4-9.3-1.3c-2.9-0.9-5.3-2.2-7.1-4L377.5,87.4z"/>
		<path fill="#FFFFFF" d="M410,62.1h11.2v21c0,2.1,0.5,3.7,1.5,4.9c1,1.2,2.5,1.8,4.5,1.8c1.1,0,2.2-0.2,3-0.7
			c0.9-0.4,1.6-1,2.3-1.8c0.6-0.7,1.1-1.6,1.4-2.6c0.3-1,0.5-2,0.5-3V62.1h11.1v36.5h-10.7l-0.3-3.9c-1.2,1.4-2.8,2.6-4.7,3.5
			s-4,1.4-6.1,1.4c-4.2,0-7.5-1.2-10-3.7c-2.4-2.5-3.7-6.2-3.7-11.1V62.1z"/>
		<path fill="#FFFFFF" d="M487.6,94.7c-0.4,0.3-1,0.7-1.9,1.3c-0.8,0.6-1.9,1.2-3.2,1.8c-1.3,0.6-2.9,1.1-4.7,1.5
			c-1.8,0.4-3.9,0.7-6.2,0.7c-3.1,0-5.9-0.5-8.4-1.4c-2.5-1-4.6-2.3-6.3-4c-1.7-1.7-3.1-3.8-4-6.2c-0.9-2.4-1.4-5.1-1.4-8
			c0-2.5,0.4-5,1.3-7.4c0.9-2.4,2.1-4.4,3.7-6.2c1.6-1.8,3.6-3.2,5.9-4.2c2.3-1.1,5-1.6,7.9-1.6c3,0,5.6,0.5,7.8,1.6
			c2.2,1,4.1,2.5,5.6,4.3c1.5,1.8,2.7,4,3.5,6.6c0.8,2.6,1.2,5.4,1.2,8.4v1.9h-26c0.1,2,0.9,3.7,2.6,5.2c1.7,1.5,4,2.2,7,2.2
			c2.9,0,5.3-0.4,7.1-1.3c1.8-0.9,3.1-1.6,4-2.2L487.6,94.7z M477.8,76.5c0-0.8-0.2-1.6-0.5-2.4c-0.3-0.8-0.8-1.5-1.4-2.2
			c-0.6-0.7-1.4-1.2-2.3-1.7c-0.9-0.4-2.1-0.7-3.3-0.7c-1.3,0-2.4,0.2-3.4,0.7c-1,0.4-1.8,1-2.5,1.7c-0.6,0.7-1.1,1.4-1.5,2.2
			c-0.3,0.8-0.5,1.6-0.5,2.4H477.8z"/>
		<path fill="#FFFFFF" d="M497.3,87.4c1.2,1.1,2.8,2,4.7,2.7c1.9,0.7,3.8,1.1,5.6,1.1c1.7,0,3-0.2,4.1-0.6c1.1-0.4,1.6-1.2,1.6-2.4
			c0-0.5-0.1-0.9-0.4-1.3c-0.2-0.4-0.7-0.8-1.3-1.1c-0.6-0.3-1.5-0.7-2.6-1.1c-1.1-0.4-2.5-0.8-4.2-1.2c-1.4-0.4-2.8-0.8-4.2-1.4
			c-1.4-0.6-2.6-1.3-3.7-2.2c-1.1-0.9-1.9-1.9-2.6-3.2s-1-2.7-1-4.4c0-1.7,0.4-3.3,1.2-4.6c0.8-1.4,1.9-2.6,3.2-3.6
			c1.4-1,3-1.8,4.9-2.3c1.9-0.5,3.9-0.8,6.1-0.8c3.1,0,5.8,0.4,8.2,1.1c2.3,0.7,4.5,1.7,6.5,3.1l-4.7,7.4c-1.2-0.8-2.6-1.5-4.1-2.1
			c-1.5-0.6-3.3-0.9-5.2-0.9c-1.7,0-3,0.2-3.7,0.7c-0.8,0.5-1.2,1.2-1.2,2c0,1.2,0.8,2.1,2.4,2.6c1.6,0.6,3.8,1.2,6.5,1.9
			c3.7,1,6.4,2.5,8.1,4.3c1.7,1.8,2.5,4.2,2.5,7.2c0,2-0.5,3.8-1.4,5.2c-0.9,1.5-2.1,2.7-3.7,3.6c-1.5,1-3.3,1.7-5.2,2.1
			c-1.9,0.5-3.9,0.7-6,0.7c-3.3,0-6.4-0.4-9.3-1.3c-2.9-0.9-5.3-2.2-7.1-4L497.3,87.4z"/>
	</g>
	<g>
		<path fill="#C1E5E1" d="M438.1,53.2c-0.3-0.2-0.6-0.5-0.8-0.8c-0.2-0.3-0.4-0.7-0.5-1.1c-0.1-0.4-0.2-0.8-0.3-1.2
			c-0.1-0.4-0.2-0.8-0.3-1.2c0-0.3,0.1-0.6,0.2-0.7c0.1-0.2,0.3-0.3,0.5-0.4c0.6,0,1.1-0.1,1.5-0.1c0.4-0.1,0.9-0.1,1.3-0.2
			c0.4-0.1,0.9-0.1,1.3-0.2c0.4-0.1,0.9-0.1,1.4-0.1c0.4-0.7,0.7-1.4,1-2.1c0.3-0.7,0.6-1.3,0.9-1.9c0.1-0.6,0.3-1.1,0.5-1.6
			c0.2-0.5,0.4-1,0.7-1.5c0.2-0.5,0.4-0.9,0.6-1.4c0.2-0.5,0.3-1,0.3-1.5c0.3-0.8,0.5-1.6,0.8-2.3c0.2-0.7,0.4-1.5,0.5-2.5
			c-0.9,0.1-1.6,0.3-2.2,0.4c-0.5,0.1-0.9,0.3-1.2,0.4c-0.5,0-0.8-0.1-1.1-0.3c-0.3-0.2-0.5-0.4-0.7-0.6c-0.2-0.2-0.3-0.5-0.4-0.8
			c-0.1-0.3-0.3-0.6-0.4-1c0.1-0.2,0.1-0.5,0.1-0.9c0-0.4-0.2-0.7-0.4-0.9c0.2,0,0.3-0.2,0.4-0.5c0.1-0.3,0.1-0.5,0-0.6
			c0.4-0.1,0.8-0.2,1.3-0.2c0.4,0,0.9-0.1,1.3-0.1c0.4,0,0.9-0.1,1.3-0.1c0.4-0.1,0.7-0.2,1-0.4c1.2,0,2.5-0.1,3.8-0.1
			c1.3,0,2.6-0.1,3.7-0.2c0.4,0.1,0.9,0.2,1.5,0.2c0.6,0,1.1,0,1.7,0.1c0.6,0.1,1.1,0.2,1.5,0.5c0.4,0.2,0.7,0.7,0.9,1.2
			c0.4,0,0.6,0.1,0.8,0.3c0.2,0.1,0.3,0.3,0.3,0.5c0,0.2,0.1,0.4,0.1,0.7c0,0.2,0,0.5,0,0.7c-0.4,0.3-0.9,0.5-1.4,0.7
			c-0.6,0.2-1.2,0.3-1.9,0.4c-0.7,0.1-1.4,0.2-2.1,0.2c-0.7,0-1.5,0.1-2.2,0.1c-0.1,0.8-0.3,1.7-0.6,2.7c-0.3,1.1-0.6,2.1-0.9,3.1
			c-0.3,1-0.6,1.9-0.8,2.7c-0.2,0.8-0.3,1.3-0.3,1.5c-0.2,0.5-0.4,1-0.6,1.4c-0.2,0.4-0.3,0.7-0.4,1.1c-0.1,0.3-0.3,0.7-0.4,1
			c-0.1,0.3-0.3,0.7-0.5,1.1h2.4c0,0.3,0.2,0.4,0.3,0.5c0.2,0.1,0.3,0.2,0.5,0.2c0.2,0.1,0.4,0.2,0.5,0.3c0.2,0.1,0.2,0.3,0.2,0.5
			c0.4,0.1,0.7,0.3,0.9,0.5c0.1,0.2,0.1,0.5,0.1,0.8c-0.1,0.3-0.2,0.5-0.4,0.8s-0.3,0.5-0.5,0.7c-0.2,0-0.4,0-0.6,0.2
			c-0.2,0.2-0.4,0.3-0.5,0.5c-0.7-0.1-1.4-0.1-2,0c-0.7,0.1-1.3,0.1-1.8,0.2c-0.1,0-0.2,0.1-0.1,0.2c0,0.1,0,0.2-0.1,0.2
			c-0.7-0.2-1.5-0.3-2.3-0.3c-0.8,0-1.6,0.2-2.3,0.3c-0.8,0.2-1.6,0.4-2.4,0.6C439.8,53.1,439,53.2,438.1,53.2z"/>
		<path fill="#C1E5E1" d="M456.7,36.8c0.1-0.4,0.1-0.6,0.1-0.9c0-0.2-0.1-0.5-0.2-0.7c0.1-0.4,0.2-0.7,0.2-0.9
			c0.1-0.2,0.1-0.5,0-0.9c0.2-0.6,0.5-1.1,1-1.6c0.4-0.4,0.9-0.8,1.4-1.1c0.5-0.3,1.1-0.5,1.6-0.7c0.6-0.2,1.1-0.4,1.6-0.5
			c0-0.1,0-0.1-0.1-0.1c-0.1,0-0.1-0.1-0.1-0.2c1.3-0.2,2.6-0.6,3.8-1c1.3-0.4,2.6-0.9,4-1.2c1.3-0.4,2.7-0.6,4.2-0.7
			c1.4-0.1,2.9,0.1,4.5,0.5c0.1,0.3,0.2,0.6,0.4,0.8c0.2,0.3,0.3,0.5,0.5,0.8c0.2,0.2,0.3,0.5,0.5,0.7c0.1,0.2,0.2,0.5,0.2,0.7
			c0.3,0.3,0.5,0.5,0.7,0.8c0.2,0.3,0.2,0.7,0.1,1.2c-0.3,0.2-0.5,0.4-0.8,0.6c-0.3,0.2-0.6,0.4-0.9,0.5c-1.1-0.3-2.1-0.4-3.2-0.3
			c-1.1,0.1-2,0.2-2.9,0.2c-0.3-0.3-0.6-0.4-0.9-0.4c-0.4,0-0.7,0.1-1.1,0.2c-0.4,0.1-0.8,0.2-1.2,0.3c-0.4,0.1-0.7,0.1-1.1,0.1
			c-0.3,0.2-0.6,0.4-1,0.5c-0.4,0.1-0.9,0.1-1.3,0.2c0,0.1,0,0.2,0.1,0.2c0.1,0,0.1,0.1,0,0.3c0.2,0.2,0.4,0.4,0.7,0.4
			c0.3,0.1,0.6,0.2,0.9,0.2c0.3,0.1,0.6,0.2,0.8,0.3c0.2,0.1,0.4,0.3,0.5,0.6c0.4,0,0.8,0.1,1.1,0.3c0.3,0.2,0.6,0.4,0.8,0.7
			c0.2,0.3,0.4,0.6,0.5,0.9c0.1,0.3,0.1,0.6,0.1,0.9c0.1,0.2,0.2,0.3,0.3,0.3c0.1,0,0.2,0,0.4,0.2c0.1,0.4,0.3,0.7,0.7,1.1
			c0.3,0.4,0.6,0.8,0.8,1.3c0,0.7,0.1,1.3,0.1,1.9c0,0.6-0.1,1.1-0.3,1.7c-0.4,1-1,2-1.7,2.8c-0.8,0.8-1.6,1.6-2.6,2.2
			c-1,0.6-2,1.2-3,1.6c-1.1,0.5-2.1,0.8-3.2,1.2c-0.1,0-0.2,0-0.3,0c-0.1,0-0.2,0-0.1-0.2c-0.2,0.2-0.5,0.3-0.7,0.4
			c-0.3,0-0.6,0.1-0.9,0.1c-0.3,0-0.6,0-1-0.1s-0.6,0-0.9,0c-0.2-0.2-0.4-0.4-0.5-0.6c-0.2-0.2-0.3-0.4-0.4-0.7
			c-0.1,0-0.2-0.1-0.2-0.2c0-0.1,0-0.2-0.2-0.2c0-0.1,0-0.2,0-0.2c0,0,0-0.1,0.1-0.1c0.1-0.1,0.1-0.1,0.1-0.2c0,0,0-0.1-0.1-0.1
			c-0.1,0-0.1-0.1-0.2-0.1c-0.1,0-0.1-0.1-0.1-0.2c0.1-0.2,0.2-0.5,0.1-0.8c0-0.3-0.1-0.6-0.1-0.9c0-0.3,0-0.6,0.1-0.9
			c0.1-0.3,0.3-0.5,0.6-0.7c1,0.1,1.9,0,2.7-0.1c0.9-0.2,1.7-0.4,2.4-0.8c0.8-0.3,1.5-0.7,2.2-1.1c0.7-0.4,1.4-0.8,2-1.1
			c0.1-0.2,0.2-0.4,0.3-0.6c0.2-0.2,0.3-0.3,0.5-0.5c0.2-0.2,0.3-0.3,0.5-0.5s0.2-0.4,0.3-0.7c0-0.1,0-0.2,0-0.2
			c0,0-0.1-0.1-0.1-0.1c0,0-0.1-0.1-0.1-0.1c0,0-0.1-0.1-0.1-0.2c-0.1,0-0.1,0-0.2-0.1c-0.1,0-0.1,0-0.2,0c-0.6-0.3-1.3-0.6-2-0.8
			c-0.7-0.2-1.3-0.4-1.7-0.7c-0.3,0.2-0.6,0.2-0.9,0.1c-0.3-0.1-0.6-0.2-1-0.3c-1,0-1.9-0.1-2.8-0.3c-0.9-0.1-1.7-0.4-2.6-0.7
			c0-0.1-0.1-0.3-0.2-0.4c-0.1-0.1-0.2-0.1-0.5-0.1c-0.2-0.2-0.3-0.5-0.5-0.7C457,37.3,456.9,37.1,456.7,36.8z"/>
		<path fill="#C1E5E1" d="M477.7,36.8c0.1-0.4,0.1-0.6,0.1-0.9c0-0.2-0.1-0.5-0.2-0.7c0.1-0.4,0.2-0.7,0.2-0.9
			c0.1-0.2,0.1-0.5,0-0.9c0.2-0.6,0.5-1.1,1-1.6c0.4-0.4,0.9-0.8,1.4-1.1c0.5-0.3,1.1-0.5,1.6-0.7c0.6-0.2,1.1-0.4,1.6-0.5
			c0-0.1,0-0.1-0.1-0.1c-0.1,0-0.1-0.1-0.1-0.2c1.3-0.2,2.6-0.6,3.8-1c1.3-0.4,2.6-0.9,4-1.2c1.3-0.4,2.7-0.6,4.2-0.7
			c1.4-0.1,2.9,0.1,4.5,0.5c0.1,0.3,0.2,0.6,0.4,0.8c0.2,0.3,0.3,0.5,0.5,0.8c0.2,0.2,0.3,0.5,0.5,0.7c0.1,0.2,0.2,0.5,0.2,0.7
			c0.3,0.3,0.5,0.5,0.7,0.8c0.2,0.3,0.2,0.7,0.1,1.2c-0.3,0.2-0.5,0.4-0.8,0.6c-0.3,0.2-0.6,0.4-0.9,0.5c-1.1-0.3-2.1-0.4-3.2-0.3
			c-1.1,0.1-2,0.2-2.9,0.2c-0.3-0.3-0.6-0.4-0.9-0.4c-0.4,0-0.7,0.1-1.1,0.2c-0.4,0.1-0.8,0.2-1.2,0.3c-0.4,0.1-0.7,0.1-1.1,0.1
			c-0.3,0.2-0.6,0.4-1,0.5c-0.4,0.1-0.9,0.1-1.3,0.2c0,0.1,0,0.2,0.1,0.2c0.1,0,0.1,0.1,0,0.3c0.2,0.2,0.4,0.4,0.7,0.4
			c0.3,0.1,0.6,0.2,0.9,0.2c0.3,0.1,0.6,0.2,0.8,0.3c0.2,0.1,0.4,0.3,0.5,0.6c0.4,0,0.8,0.1,1.1,0.3c0.3,0.2,0.6,0.4,0.8,0.7
			c0.2,0.3,0.4,0.6,0.5,0.9c0.1,0.3,0.1,0.6,0.1,0.9c0.1,0.2,0.2,0.3,0.3,0.3c0.1,0,0.2,0,0.4,0.2c0.1,0.4,0.3,0.7,0.7,1.1
			c0.3,0.4,0.6,0.8,0.8,1.3c0,0.7,0.1,1.3,0.1,1.9c0,0.6-0.1,1.1-0.3,1.7c-0.4,1-1,2-1.7,2.8c-0.8,0.8-1.6,1.6-2.6,2.2
			c-1,0.6-2,1.2-3,1.6c-1.1,0.5-2.1,0.8-3.2,1.2c-0.1,0-0.2,0-0.3,0c-0.1,0-0.2,0-0.1-0.2c-0.2,0.2-0.5,0.3-0.7,0.4
			c-0.3,0-0.6,0.1-0.9,0.1c-0.3,0-0.6,0-1-0.1c-0.3,0-0.6,0-0.9,0c-0.2-0.2-0.4-0.4-0.5-0.6c-0.2-0.2-0.3-0.4-0.4-0.7
			c-0.1,0-0.2-0.1-0.2-0.2c0-0.1,0-0.2-0.2-0.2c0-0.1,0-0.2,0-0.2c0,0,0-0.1,0.1-0.1c0.1-0.1,0.1-0.1,0.1-0.2c0,0,0-0.1-0.1-0.1
			c-0.1,0-0.1-0.1-0.2-0.1c-0.1,0-0.1-0.1-0.1-0.2c0.1-0.2,0.2-0.5,0.1-0.8c0-0.3-0.1-0.6-0.1-0.9c0-0.3,0-0.6,0.1-0.9
			c0.1-0.3,0.3-0.5,0.6-0.7c1,0.1,1.9,0,2.7-0.1c0.9-0.2,1.7-0.4,2.4-0.8c0.8-0.3,1.5-0.7,2.2-1.1c0.7-0.4,1.4-0.8,2-1.1
			c0.1-0.2,0.2-0.4,0.3-0.6c0.2-0.2,0.3-0.3,0.5-0.5c0.2-0.2,0.3-0.3,0.5-0.5s0.2-0.4,0.3-0.7c0-0.1,0-0.2,0-0.2
			c0,0-0.1-0.1-0.1-0.1c0,0-0.1-0.1-0.1-0.1c0,0-0.1-0.1-0.1-0.2c-0.1,0-0.1,0-0.2-0.1c-0.1,0-0.1,0-0.2,0c-0.6-0.3-1.3-0.6-2-0.8
			c-0.7-0.2-1.3-0.4-1.7-0.7c-0.3,0.2-0.6,0.2-0.9,0.1c-0.3-0.1-0.6-0.2-1-0.3c-1,0-1.9-0.1-2.8-0.3c-0.9-0.1-1.7-0.4-2.6-0.7
			c0-0.1-0.1-0.3-0.2-0.4c-0.1-0.1-0.2-0.1-0.5-0.1c-0.2-0.2-0.3-0.5-0.5-0.7C478,37.3,477.8,37.1,477.7,36.8z"/>
		<path fill="#C1E5E1" d="M500.7,35.2c0-0.3-0.1-0.5-0.2-0.6c0.2-0.4,0.3-0.8,0.4-1.3c0.1-0.4,0.1-0.8,0.2-1.2
			c0-0.3,0.1-0.6,0.2-0.9c0.1-0.3,0.1-0.6,0.2-0.8c0.4-0.1,0.7-0.3,0.9-0.5c0.2-0.2,0.4-0.5,0.5-0.7c0.4,0,0.7,0,0.8,0.2
			c0.1,0.1,0.3,0.4,0.4,0.7c0.1,0.3,0.3,0.5,0.5,0.8c0.2,0.3,0.5,0.5,1,0.7c0.1,0.3,0.2,0.5,0.2,0.7c0.1,0.2,0.2,0.5,0.3,0.7
			c0.2,0.5,0.4,1,0.6,1.5c0.2,0.5,0.3,1,0.3,1.5c-0.3,0.5-0.5,1.2-0.7,1.9c-0.2,0.7-0.2,1.4-0.3,2.1c0,0.7,0,1.4,0.1,2.1
			c0.1,0.7,0.2,1.2,0.4,1.7l0.2,0.6l0.8-0.1c0.9-0.2,1.6-0.5,2.3-0.7c0.7-0.3,1.3-0.6,1.9-1c0.6-0.4,1.2-0.8,1.7-1.3
			c0.5-0.5,1.1-1.1,1.7-1.7c0.6-0.7,1.1-1.4,1.5-2.3c0.4-0.8,0.8-1.7,1.1-2.6c0.3-0.9,0.5-1.8,0.7-2.7c0.2-0.9,0.3-1.7,0.3-2.5
			c0.4-0.2,0.7-0.6,0.7-1l-0.1-0.5c-0.1-0.1-0.1-0.2-0.1-0.3c0-0.1,0-0.2,0.1-0.3c0.2-0.5,0.6-0.9,1.2-1.2c0.4,0.3,0.8,0.6,1.2,0.9
			c0.4,0.3,0.7,0.7,1,1c0,0.6,0.1,1.2,0.3,1.6c0.1,0.5,0.3,0.9,0.5,1.3c0.2,0.4,0.3,0.8,0.4,1.2c0.1,0.4,0.2,0.8,0.3,1.4
			c-0.2,0.7-0.4,1.4-0.5,2c-0.1,0.6-0.2,1.3-0.3,2l-0.1,0.4c-0.4,0.7-0.8,1.5-1.3,2.3c-0.4,0.8-0.8,1.4-1,2
			c-0.1,0.1-0.3,0.3-0.4,0.5c-0.1,0.2-0.2,0.4-0.3,0.6c0,0.1-0.1,0.2-0.2,0.4c-0.1,0.2-0.2,0.3-0.2,0.4l-0.9-0.3L519,45l-0.6,0.1
			l-0.4,0.5c-0.5,0.9-1.1,1.7-1.7,2.4c-0.6,0.6-1.3,1.2-2,1.7c-0.7,0.5-1.6,1-2.5,1.4c-0.9,0.4-2,0.9-3.2,1.4
			c-0.5-0.1-0.9-0.1-1.2-0.1c-0.3,0-0.7,0-1-0.1c-0.3,0-0.7,0-1,0c-0.3,0-0.7-0.1-1.1-0.1c-0.1-0.2-0.2-0.4-0.4-0.5
			c-0.2-0.1-0.3-0.1-0.5-0.1c-0.5-0.2-0.8-0.6-1.1-1c-0.2-0.4-0.5-0.9-0.7-1.4c-0.1-0.3-0.2-0.6-0.4-0.9c-0.1-0.3-0.3-0.6-0.5-0.8
			l0.7-0.2l-0.9-1.1c-0.1-0.1-0.1-0.1-0.2-0.2c-0.1-0.1-0.2-0.2-0.2-0.2v-0.7c-0.1-1.9-0.1-3.7-0.1-5.4c0-1.6,0.2-3.1,0.7-4.3
			L500.7,35.2z"/>
		<path fill="#C1E5E1" d="M525.4,51.6c-0.2-0.2-0.3-0.4-0.4-0.7c-0.1-0.3-0.3-0.5-0.6-0.6c0-0.4-0.1-0.8-0.2-1.2
			c-0.1-0.5-0.2-0.9-0.2-1.4c-0.1-0.5-0.1-1-0.2-1.5c0-0.5,0-0.9,0.1-1.3c0-0.2,0.1-0.4,0.2-0.6c0.1-0.2,0.2-0.4,0.3-0.5
			c0.1-0.2,0.2-0.4,0.2-0.5c0.1-0.2,0.1-0.4,0-0.6c0.1,0,0.2-0.1,0.3-0.2c0-0.1,0.1-0.2,0.3-0.1c0.2-0.5,0.3-1,0.5-1.5
			c0.2-0.4,0.4-0.9,0.6-1.3c0.2-0.4,0.4-0.9,0.7-1.3c0.2-0.4,0.4-0.9,0.6-1.5c-0.4-0.4-0.7-0.8-0.9-1.2c-0.2-0.4-0.3-0.9-0.4-1.3
			c-0.1-0.4-0.2-0.9-0.2-1.4c0-0.5-0.1-0.9-0.3-1.4c0.3-0.4,0.6-0.8,1-1c0.4-0.3,0.8-0.5,1.3-0.7c0.5-0.2,1-0.3,1.6-0.4
			c0.6-0.1,1.2-0.2,1.8-0.4c1.1-0.4,2.2-0.6,3.1-0.8c0.9-0.2,1.8-0.4,2.6-0.5c0.9-0.1,1.7-0.2,2.7-0.4s2-0.3,3.2-0.5
			c0,0.1,0.1,0.1,0.1,0.1c0.1,0,0.1,0,0.2,0c0.1,0.2,0.2,0.2,0.4,0.2c0-0.1,0-0.1,0-0.2c0-0.1,0-0.1,0-0.2c0,0,0.1,0,0.2,0
			c0.1,0,0.2,0,0.2,0.1c0.1,0,0.1,0,0.2,0c0,0,0.1-0.1,0-0.2c0.3,0.5,0.6,0.9,1.1,1.2c0.4,0.3,0.9,0.6,1.5,0.8c0,0.2,0,0.4,0,0.5
			c0,0.1,0,0.2-0.1,0.3c0,0.1,0,0.2,0,0.3s0,0.3,0.1,0.4c-0.4,0.6-0.8,1.1-1.3,1.5c-0.5,0.4-1,0.6-1.5,0.8c-0.5,0.2-1.1,0.3-1.7,0.4
			c-0.6,0.1-1.2,0.2-1.8,0.3c-0.6,0.1-1.3,0.3-1.9,0.4c-0.6,0.2-1.3,0.5-1.9,0.9c-0.2-0.1-0.4-0.1-0.5-0.1c-0.2,0-0.3,0-0.5,0.1
			c-0.2,0-0.3,0.1-0.5,0.1c-0.2,0-0.4,0-0.7,0c-0.2,0.2-0.4,0.3-0.7,0.4c-0.2,0.1-0.5,0.1-0.8,0.2c0.1,0.3,0.2,0.5,0.2,0.8
			c0,0.3,0,0.5,0.1,0.7c1,0.1,2.1,0.1,3.3,0c1.2-0.1,2.4-0.2,3.5-0.2c0,0.1,0,0.2,0,0.2c0,0-0.1,0.1-0.1,0.2
			c0.2,0.1,0.4,0.3,0.6,0.5c0.2,0.2,0.4,0.4,0.6,0.6c0.2,0.2,0.4,0.4,0.6,0.5c0.2,0.1,0.5,0.2,0.7,0.2c0.1,0.2,0.2,0.5,0.2,0.7
			c0,0.3,0,0.5-0.1,0.8c-0.5,0.3-0.9,0.6-1.4,0.9c-0.5,0.3-0.9,0.6-1.4,0.9c-0.5,0.3-1,0.5-1.6,0.6c-0.6,0.2-1.2,0.2-1.8,0.2
			c-0.1,0-0.2,0-0.3,0c-0.1,0-0.2,0-0.3-0.1c-0.2,0.1-0.5,0.2-0.9,0.1c-0.4,0-0.7,0-1,0.1c-0.3-0.1-0.7-0.2-1.2-0.2
			c-0.4,0-0.8-0.1-1.2-0.2c-0.4,0.6-0.8,1.3-1.2,1.9c-0.4,0.7-0.7,1.4-1,2.1c1,0.1,1.8,0.2,2.4,0.2c0.6,0,1.2-0.1,1.8-0.1
			c0.6-0.1,1.2-0.1,1.8-0.2c0.6-0.1,1.3-0.1,2.2-0.1c0.6-0.3,1.3-0.5,2-0.6c0.8-0.1,1.5-0.3,2.1-0.5c0.2,0.1,0.4,0.2,0.6,0.4
			c0.2,0.2,0.3,0.4,0.5,0.6c0.2,0.2,0.3,0.4,0.5,0.5c0.2,0.1,0.4,0.2,0.6,0.1c0.1,0.1,0.2,0.3,0.2,0.4c0,0.2,0.1,0.3,0.1,0.5
			c0,0.1,0.1,0.3,0.2,0.3c0.1,0.1,0.2,0.1,0.4,0.1c-0.5,0.9-1,1.6-1.5,2.1c-0.6,0.5-1.2,0.9-1.9,1.2c-0.7,0.3-1.5,0.5-2.3,0.6
			c-0.9,0.1-1.8,0.3-2.9,0.5c-0.3,0-0.5,0-0.7,0c-0.2-0.1-0.4-0.1-0.5-0.1c-0.7,0.1-1.4,0.2-2.4,0.4c-0.9,0.1-1.8,0.2-2.7,0.1
			s-1.8-0.1-2.7-0.4C526.7,52.5,526,52.1,525.4,51.6z"/>
		<path fill="#C1E5E1" d="M546.6,36.8c0.1-0.4,0.1-0.6,0.1-0.9c0-0.2-0.1-0.5-0.2-0.7c0.1-0.4,0.2-0.7,0.2-0.9
			c0.1-0.2,0.1-0.5,0-0.9c0.2-0.6,0.5-1.1,1-1.6c0.4-0.4,0.9-0.8,1.4-1.1c0.5-0.3,1.1-0.5,1.6-0.7c0.6-0.2,1.1-0.4,1.6-0.5
			c0-0.1,0-0.1-0.1-0.1c-0.1,0-0.1-0.1-0.1-0.2c1.3-0.2,2.6-0.6,3.8-1c1.3-0.4,2.6-0.9,4-1.2c1.3-0.4,2.7-0.6,4.2-0.7
			c1.4-0.1,2.9,0.1,4.5,0.5c0.1,0.3,0.2,0.6,0.4,0.8c0.2,0.3,0.3,0.5,0.5,0.8c0.2,0.2,0.3,0.5,0.5,0.7c0.1,0.2,0.2,0.5,0.2,0.7
			c0.3,0.3,0.5,0.5,0.7,0.8c0.2,0.3,0.2,0.7,0.1,1.2c-0.3,0.2-0.5,0.4-0.8,0.6c-0.3,0.2-0.6,0.4-0.9,0.5c-1.1-0.3-2.1-0.4-3.2-0.3
			c-1.1,0.1-2,0.2-2.9,0.2c-0.3-0.3-0.6-0.4-0.9-0.4c-0.4,0-0.7,0.1-1.1,0.2c-0.4,0.1-0.8,0.2-1.2,0.3c-0.4,0.1-0.7,0.1-1.1,0.1
			c-0.3,0.2-0.6,0.4-1,0.5c-0.4,0.1-0.9,0.1-1.3,0.2c0,0.1,0,0.2,0.1,0.2c0.1,0,0.1,0.1,0,0.3c0.2,0.2,0.4,0.4,0.7,0.4
			c0.3,0.1,0.6,0.2,0.9,0.2c0.3,0.1,0.6,0.2,0.8,0.3c0.2,0.1,0.4,0.3,0.5,0.6c0.4,0,0.8,0.1,1.1,0.3c0.3,0.2,0.6,0.4,0.8,0.7
			c0.2,0.3,0.4,0.6,0.5,0.9c0.1,0.3,0.1,0.6,0.1,0.9c0.1,0.2,0.2,0.3,0.3,0.3c0.1,0,0.2,0,0.4,0.2c0.1,0.4,0.3,0.7,0.7,1.1
			c0.3,0.4,0.6,0.8,0.8,1.3c0,0.7,0.1,1.3,0.1,1.9c0,0.6-0.1,1.1-0.3,1.7c-0.4,1-1,2-1.7,2.8c-0.8,0.8-1.6,1.6-2.6,2.2
			c-1,0.6-2,1.2-3,1.6c-1.1,0.5-2.1,0.8-3.2,1.2c-0.1,0-0.2,0-0.3,0c-0.1,0-0.2,0-0.1-0.2c-0.2,0.2-0.5,0.3-0.7,0.4
			c-0.3,0-0.6,0.1-0.9,0.1c-0.3,0-0.6,0-1-0.1s-0.6,0-0.9,0c-0.2-0.2-0.4-0.4-0.5-0.6c-0.2-0.2-0.3-0.4-0.4-0.7
			c-0.1,0-0.2-0.1-0.2-0.2c0-0.1,0-0.2-0.2-0.2c0-0.1,0-0.2,0-0.2c0,0,0-0.1,0.1-0.1c0.1-0.1,0.1-0.1,0.1-0.2c0,0,0-0.1-0.1-0.1
			c-0.1,0-0.1-0.1-0.2-0.1c-0.1,0-0.1-0.1-0.1-0.2c0.1-0.2,0.2-0.5,0.1-0.8c0-0.3-0.1-0.6-0.1-0.9c0-0.3,0-0.6,0.1-0.9
			c0.1-0.3,0.3-0.5,0.6-0.7c1,0.1,1.9,0,2.7-0.1c0.9-0.2,1.7-0.4,2.4-0.8c0.8-0.3,1.5-0.7,2.2-1.1c0.7-0.4,1.4-0.8,2-1.1
			c0.1-0.2,0.2-0.4,0.3-0.6c0.2-0.2,0.3-0.3,0.5-0.5c0.2-0.2,0.3-0.3,0.5-0.5s0.2-0.4,0.3-0.7c0-0.1,0-0.2,0-0.2
			c0,0-0.1-0.1-0.1-0.1c0,0-0.1-0.1-0.1-0.1c0,0-0.1-0.1-0.1-0.2c-0.1,0-0.1,0-0.2-0.1c-0.1,0-0.1,0-0.2,0c-0.6-0.3-1.3-0.6-2-0.8
			c-0.7-0.2-1.3-0.4-1.7-0.7c-0.3,0.2-0.6,0.2-0.9,0.1c-0.3-0.1-0.6-0.2-1-0.3c-1,0-1.9-0.1-2.8-0.3c-0.9-0.1-1.7-0.4-2.6-0.7
			c0-0.1-0.1-0.3-0.2-0.4c-0.1-0.1-0.2-0.1-0.5-0.1c-0.2-0.2-0.3-0.5-0.5-0.7C546.9,37.3,546.8,37.1,546.6,36.8z"/>
	</g>
	<g>
		<path fill="#C1E5E1" d="M558.2,70.5c-74.5-0.2-148.9,2.6-223.2,8.3c-3.3,0.3-3.3,5.2,0,4.9c74.2-5.7,148.7-8.5,223.2-8.3
			C561.5,75.5,561.5,70.5,558.2,70.5z"/>
	</g>
</g>
</svg>
